<?xml version="1.0" encoding="utf-8" standalone="no"?>
<!DOCTYPE svg PUBLIC "-//W3C//DTD SVG 1.1//EN"
  "http://www.w3.org/Graphics/SVG/1.1/DTD/svg11.dtd">
<svg xmlns:xlink="http://www.w3.org/1999/xlink" width="720pt" height="432pt" viewBox="0 0 720 432" xmlns="http://www.w3.org/2000/svg" version="1.1">
 <metadata>
  <rdf:RDF xmlns:dc="http://purl.org/dc/elements/1.1/" xmlns:cc="http://creativecommons.org/ns#" xmlns:rdf="http://www.w3.org/1999/02/22-rdf-syntax-ns#">
   <cc:Work>
    <dc:type rdf:resource="http://purl.org/dc/dcmitype/StillImage"/>
    <dc:date>2026-07-11T18:43:47.032524</dc:date>
    <dc:format>image/svg+xml</dc:format>
    <dc:creator>
     <cc:Agent>
      <dc:title>Matplotlib v3.10.8, https://matplotlib.org/</dc:title>
     </cc:Agent>
    </dc:creator>
   </cc:Work>
  </rdf:RDF>
 </metadata>
 <defs>
  <style type="text/css">*{stroke-linejoin: round; stroke-linecap: butt}</style>
 </defs>
 <g id="figure_1">
  <g id="patch_1">
   <path d="M 0 432 
L 720 432 
L 720 0 
L 0 0 
z
" style="fill: #ffffff"/>
  </g>
  <g id="axes_1">
   <g id="patch_2">
    <path d="M 58.43 370.960464 
L 709.2 370.960464 
L 709.2 29.04 
L 58.43 29.04 
z
" style="fill: #ffffff"/>
   </g>
   <g id="matplotlib.axis_1">
    <g id="xtick_1">
     <g id="line2d_1">
      <path d="M 76.518927 370.960464 
L 76.518927 29.04 
" clip-path="url(#pb66ca223e5)" style="fill: none; stroke: #b0b0b0; stroke-width: 0.8; stroke-linecap: square"/>
     </g>
     <g id="line2d_2">
      <defs>
       <path id="md8640c1143" d="M 0 0 
L 0 3.5 
" style="stroke: #000000; stroke-width: 0.8"/>
      </defs>
      <g>
       <use xlink:href="#md8640c1143" x="76.518927" y="370.960464" style="stroke: #000000; stroke-width: 0.8"/>
      </g>
     </g>
     <g id="text_1">
      <!-- Jul 09 -->
      <g transform="translate(43.421026 402.940025) rotate(-30) scale(0.1 -0.1)">
       <defs>
        <path id="SegoeScript-4a" d="M 3559 3347 
Q 3559 2763 3526 2334 
Q 3494 1906 3425 1625 
Q 3409 1553 3367 1448 
Q 3325 1344 3259 1200 
Q 3194 1056 3134 943 
Q 3075 831 3022 750 
Q 2997 716 2953 659 
Q 2909 603 2841 525 
Q 2600 247 2331 116 
Q 2059 -13 1697 -13 
Q 1434 -13 1153 25 
Q 878 63 616 163 
Q 356 263 206 422 
Q 153 475 153 550 
Q 153 619 181 676 
Q 209 734 256 776 
Q 303 819 365 841 
Q 428 863 500 863 
Q 575 863 894 728 
Q 1056 663 1168 617 
Q 1281 572 1347 547 
Q 1478 500 1606 500 
Q 2025 500 2286 687 
Q 2547 875 2706 1269 
Q 2938 1831 2938 2766 
Q 2938 2897 2927 3187 
Q 2916 3478 2894 3938 
Q 2888 4100 2881 4223 
Q 2875 4347 2875 4428 
Q 2869 4447 2891 4475 
Q 2913 4503 2944 4531 
Q 2975 4559 3006 4582 
Q 3038 4606 3053 4622 
Q 3094 4659 3175 4659 
Q 3266 4659 3334 4614 
Q 3403 4569 3425 4494 
Q 3428 4488 3437 4403 
Q 3447 4319 3469 4156 
Q 3513 3834 3536 3618 
Q 3559 3403 3559 3347 
z
" transform="scale(0.015625)"/>
        <path id="SegoeScript-75" d="M 6044 2528 
Q 6044 2409 5984 2257 
Q 5925 2106 5822 1975 
Q 5691 1806 5527 1640 
Q 5363 1475 5184 1323 
Q 5006 1172 4822 1042 
Q 4638 913 4464 817 
Q 4291 722 4137 667 
Q 3984 613 3869 613 
Q 3722 613 3612 663 
Q 3503 713 3423 798 
Q 3344 884 3291 1000 
Q 3238 1116 3198 1244 
Q 3159 1372 3134 1508 
Q 3109 1644 3088 1772 
Q 3009 1653 2911 1504 
Q 2813 1356 2705 1203 
Q 2597 1050 2486 908 
Q 2375 766 2278 659 
Q 2169 544 2039 437 
Q 1909 331 1764 251 
Q 1619 172 1459 123 
Q 1300 75 1131 75 
Q 884 75 744 278 
Q 606 481 606 747 
Q 606 872 626 1008 
Q 647 1144 673 1278 
Q 700 1413 725 1542 
Q 750 1672 759 1788 
Q 763 1834 764 1904 
Q 766 1975 766 2069 
Q 766 2153 766 2223 
Q 766 2294 769 2358 
Q 772 2422 778 2484 
Q 784 2547 797 2616 
Q 816 2722 881 2800 
Q 947 2878 1088 2878 
Q 1375 2878 1375 2481 
Q 1375 2413 1361 2330 
Q 1347 2247 1328 2158 
Q 1309 2069 1289 1976 
Q 1269 1884 1253 1797 
Q 1222 1675 1190 1553 
Q 1159 1431 1132 1315 
Q 1106 1200 1090 1092 
Q 1075 984 1075 894 
Q 1075 847 1087 789 
Q 1100 731 1125 679 
Q 1150 628 1192 593 
Q 1234 559 1291 559 
Q 1456 559 1625 651 
Q 1794 744 1948 880 
Q 2103 1016 2239 1170 
Q 2375 1325 2478 1453 
Q 2578 1581 2676 1756 
Q 2775 1931 2864 2120 
Q 2953 2309 3034 2496 
Q 3116 2684 3181 2834 
Q 3328 3178 3444 3178 
Q 3528 3178 3556 3151 
Q 3584 3125 3584 3044 
Q 3584 2981 3570 2875 
Q 3556 2769 3537 2653 
Q 3519 2538 3505 2431 
Q 3491 2325 3491 2266 
Q 3491 2213 3492 2136 
Q 3494 2059 3497 1978 
Q 3500 1897 3508 1817 
Q 3516 1738 3528 1681 
Q 3541 1616 3572 1520 
Q 3603 1425 3651 1334 
Q 3700 1244 3769 1180 
Q 3838 1116 3928 1116 
Q 4097 1116 4311 1216 
Q 4525 1316 4750 1473 
Q 4975 1631 5197 1826 
Q 5419 2022 5609 2213 
Q 5684 2288 5761 2363 
Q 5838 2438 5902 2488 
Q 5966 2538 6005 2553 
Q 6044 2569 6044 2528 
z
" transform="scale(0.015625)"/>
        <path id="SegoeScript-6c" d="M 3625 1894 
Q 3625 1747 3447 1434 
Q 3413 1375 3352 1292 
Q 3291 1209 3216 1120 
Q 3141 1031 3059 939 
Q 2978 847 2900 769 
Q 2781 650 2639 537 
Q 2497 425 2339 334 
Q 2181 244 2014 189 
Q 1847 134 1684 134 
Q 1469 134 1281 212 
Q 1094 291 955 453 
Q 816 616 736 861 
Q 656 1106 656 1441 
Q 656 1669 678 1917 
Q 700 2166 734 2416 
Q 769 2666 811 2911 
Q 853 3156 897 3384 
Q 925 3541 945 3641 
Q 966 3741 981 3825 
Q 997 3909 1009 3995 
Q 1022 4081 1041 4209 
Q 1053 4297 1064 4364 
Q 1075 4431 1081 4475 
Q 1094 4550 1123 4619 
Q 1153 4688 1198 4741 
Q 1244 4794 1303 4825 
Q 1363 4856 1434 4856 
Q 1584 4856 1656 4716 
Q 1638 4619 1617 4530 
Q 1597 4441 1581 4341 
Q 1503 3947 1453 3703 
Q 1403 3459 1381 3359 
Q 1344 3163 1301 2934 
Q 1259 2706 1223 2468 
Q 1188 2231 1166 2000 
Q 1144 1769 1144 1569 
Q 1144 1353 1178 1176 
Q 1213 1000 1289 875 
Q 1366 750 1486 681 
Q 1606 613 1778 613 
Q 1966 613 2147 695 
Q 2328 778 2495 906 
Q 2663 1034 2813 1189 
Q 2963 1344 3088 1488 
Q 3188 1606 3263 1692 
Q 3338 1778 3388 1838 
Q 3428 1884 3479 1934 
Q 3531 1984 3575 1984 
Q 3625 1984 3625 1894 
z
" transform="scale(0.015625)"/>
        <path id="SegoeScript-20" transform="scale(0.015625)"/>
        <path id="SegoeScript-30" d="M 4559 2438 
Q 4559 2031 4291 1616 
Q 4022 1200 3591 853 
Q 3166 506 2688 275 
Q 2213 47 1822 -13 
Q 1338 -78 1106 -78 
Q 609 -78 334 263 
Q 63 603 63 1113 
Q 63 1506 219 1966 
Q 378 2425 653 2831 
Q 931 3241 1247 3488 
Q 1619 3784 2041 3991 
Q 2463 4197 2841 4197 
Q 3147 4197 3475 4050 
Q 3806 3903 4069 3675 
Q 4222 3538 4266 3488 
Q 4559 3119 4559 2438 
z
M 4031 2338 
Q 4031 2516 3972 2753 
Q 3916 2997 3825 3097 
Q 3766 3169 3698 3242 
Q 3631 3316 3556 3394 
Q 3406 3547 3306 3591 
Q 3234 3500 3081 3500 
Q 3059 3500 2963 3569 
Q 2866 3641 2781 3641 
Q 2600 3641 2416 3600 
Q 2222 3563 2116 3488 
Q 1944 3375 1725 3181 
Q 1275 2784 972 2288 
Q 669 1794 669 1275 
Q 669 1066 719 875 
Q 769 678 894 603 
Q 1159 441 1494 441 
Q 1822 441 2328 678 
Q 2650 841 2969 1063 
Q 3075 1141 3189 1233 
Q 3303 1325 3422 1434 
Q 3666 1653 3847 1897 
Q 4031 2147 4031 2338 
z
" transform="scale(0.015625)"/>
        <path id="SegoeScript-39" d="M 4056 3444 
Q 4056 3347 3981 3175 
Q 3881 2934 3809 2745 
Q 3738 2556 3694 2413 
Q 3634 2228 3551 1933 
Q 3469 1638 3359 1222 
Q 3338 1125 3314 1029 
Q 3291 934 3275 863 
Q 3259 791 3245 689 
Q 3231 588 3231 488 
Q 3231 19 3019 19 
Q 2863 19 2803 122 
Q 2750 200 2719 309 
Q 2688 419 2688 506 
Q 2688 613 2766 906 
Q 2806 1059 2850 1212 
Q 2894 1366 2938 1525 
Q 2984 1684 3021 1811 
Q 3059 1938 3084 2028 
L 3028 2069 
Q 2906 1997 2779 1928 
Q 2653 1859 2522 1794 
Q 2266 1666 2100 1631 
Q 1775 1575 1534 1575 
Q 1413 1575 1241 1713 
Q 1075 1850 950 2038 
Q 831 2222 831 2338 
Q 831 2656 991 2925 
Q 1153 3191 1366 3375 
Q 1475 3469 1623 3584 
Q 1772 3700 1966 3841 
Q 2059 3906 2284 3981 
Q 2397 4022 2509 4051 
Q 2622 4081 2731 4106 
Q 2956 4153 3084 4153 
Q 3209 4153 3304 4125 
Q 3400 4097 3483 4044 
Q 3566 3991 3647 3917 
Q 3728 3844 3828 3756 
Q 3900 3703 3940 3670 
Q 3981 3638 3994 3622 
Q 4019 3591 4056 3444 
z
M 3513 3378 
Q 3459 3522 3306 3584 
Q 3147 3647 2975 3647 
Q 2669 3647 2453 3572 
Q 2241 3497 1997 3309 
Q 1888 3228 1781 3125 
Q 1675 3022 1569 2894 
Q 1356 2644 1356 2438 
Q 1356 2231 1489 2120 
Q 1622 2009 1831 2009 
Q 2059 2009 2403 2169 
Q 2756 2338 3013 2509 
Q 3206 2644 3244 2706 
Q 3306 2819 3338 2919 
Q 3372 3025 3415 3153 
Q 3459 3281 3513 3378 
z
" transform="scale(0.015625)"/>
       </defs>
       <use xlink:href="#SegoeScript-4a"/>
       <use xlink:href="#SegoeScript-75" transform="translate(61.279297 0)"/>
       <use xlink:href="#SegoeScript-6c" transform="translate(137.695312 0)"/>
       <use xlink:href="#SegoeScript-20" transform="translate(182.080078 0)"/>
       <use xlink:href="#SegoeScript-30" transform="translate(222.070312 0)"/>
       <use xlink:href="#SegoeScript-39" transform="translate(295.117188 0)"/>
      </g>
     </g>
    </g>
    <g id="xtick_2">
     <g id="line2d_3">
      <path d="M 224.4212 370.960464 
L 224.4212 29.04 
" clip-path="url(#pb66ca223e5)" style="fill: none; stroke: #b0b0b0; stroke-width: 0.8; stroke-linecap: square"/>
     </g>
     <g id="line2d_4">
      <g>
       <use xlink:href="#md8640c1143" x="224.4212" y="370.960464" style="stroke: #000000; stroke-width: 0.8"/>
      </g>
     </g>
     <g id="text_2">
      <!-- Jul 10 -->
      <g transform="translate(191.323299 402.940025) rotate(-30) scale(0.1 -0.1)">
       <defs>
        <path id="SegoeScript-31" d="M 4306 928 
Q 4306 806 4263 781 
Q 4094 694 3887 653 
Q 3681 613 3464 583 
Q 3247 553 3033 515 
Q 2819 478 2631 397 
Q 2631 366 2637 306 
Q 2644 247 2644 213 
Q 2644 50 2234 50 
Q 2197 53 2167 86 
Q 2138 119 2109 156 
Q 2081 194 2054 222 
Q 2028 250 1997 244 
Q 1950 244 1656 159 
Q 1506 119 1415 92 
Q 1325 66 1288 50 
Q 906 -72 756 -72 
Q 628 -72 550 0 
Q 441 109 441 213 
Q 441 366 672 438 
Q 900 513 1216 569 
Q 1416 609 1625 653 
Q 1834 697 2003 775 
Q 2016 966 2028 1125 
Q 2041 1284 2056 1419 
Q 2072 1553 2092 1734 
Q 2113 1916 2144 2144 
Q 2203 2597 2247 2903 
Q 2269 3056 2287 3195 
Q 2306 3334 2322 3463 
Q 2141 3463 1819 3244 
Q 1709 3172 1621 3123 
Q 1534 3075 1472 3044 
Q 1350 2984 1119 2919 
Q 938 2869 813 2869 
Q 728 2869 700 2922 
Q 672 2975 672 3066 
Q 672 3216 763 3263 
Q 878 3322 1088 3409 
Q 1197 3456 1262 3484 
Q 1328 3513 1350 3525 
Q 1484 3591 1604 3655 
Q 1725 3719 1834 3781 
Q 1944 3844 2103 3939 
Q 2263 4034 2472 4159 
Q 2719 4306 2772 4306 
Q 2872 4306 2941 4172 
Q 3016 4034 3016 3928 
Q 3016 3841 2925 3750 
Q 2850 3428 2784 3100 
Q 2719 2772 2659 2425 
Q 2547 1734 2547 1319 
Q 2547 1300 2545 1269 
Q 2544 1238 2542 1198 
Q 2541 1159 2539 1117 
Q 2538 1075 2538 1038 
Q 2538 984 2542 943 
Q 2547 903 2553 872 
Q 2781 881 3238 1006 
Q 3447 1063 3589 1095 
Q 3731 1128 3809 1141 
Q 3922 1156 4026 1164 
Q 4131 1172 4231 1172 
Q 4306 1025 4306 928 
z
" transform="scale(0.015625)"/>
       </defs>
       <use xlink:href="#SegoeScript-4a"/>
       <use xlink:href="#SegoeScript-75" transform="translate(61.279297 0)"/>
       <use xlink:href="#SegoeScript-6c" transform="translate(137.695312 0)"/>
       <use xlink:href="#SegoeScript-20" transform="translate(182.080078 0)"/>
       <use xlink:href="#SegoeScript-31" transform="translate(222.070312 0)"/>
       <use xlink:href="#SegoeScript-30" transform="translate(295.117188 0)"/>
      </g>
     </g>
    </g>
    <g id="xtick_3">
     <g id="line2d_5">
      <path d="M 372.323473 370.960464 
L 372.323473 29.04 
" clip-path="url(#pb66ca223e5)" style="fill: none; stroke: #b0b0b0; stroke-width: 0.8; stroke-linecap: square"/>
     </g>
     <g id="line2d_6">
      <g>
       <use xlink:href="#md8640c1143" x="372.323473" y="370.960464" style="stroke: #000000; stroke-width: 0.8"/>
      </g>
     </g>
     <g id="text_3">
      <!-- Jul 11 -->
      <g transform="translate(339.225572 402.940025) rotate(-30) scale(0.1 -0.1)">
       <use xlink:href="#SegoeScript-4a"/>
       <use xlink:href="#SegoeScript-75" transform="translate(61.279297 0)"/>
       <use xlink:href="#SegoeScript-6c" transform="translate(137.695312 0)"/>
       <use xlink:href="#SegoeScript-20" transform="translate(182.080078 0)"/>
       <use xlink:href="#SegoeScript-31" transform="translate(222.070312 0)"/>
       <use xlink:href="#SegoeScript-31" transform="translate(295.117188 0)"/>
      </g>
     </g>
    </g>
    <g id="xtick_4">
     <g id="line2d_7">
      <path d="M 520.225745 370.960464 
L 520.225745 29.04 
" clip-path="url(#pb66ca223e5)" style="fill: none; stroke: #b0b0b0; stroke-width: 0.8; stroke-linecap: square"/>
     </g>
     <g id="line2d_8">
      <g>
       <use xlink:href="#md8640c1143" x="520.225745" y="370.960464" style="stroke: #000000; stroke-width: 0.8"/>
      </g>
     </g>
     <g id="text_4">
      <!-- Jul 12 -->
      <g transform="translate(487.127845 402.940025) rotate(-30) scale(0.1 -0.1)">
       <defs>
        <path id="SegoeScript-32" d="M 4463 622 
Q 4463 556 4425 469 
Q 4384 366 4191 275 
Q 4003 191 3872 191 
L 3756 191 
Q 3459 191 3316 231 
Q 2875 347 2234 347 
Q 2106 347 1972 337 
Q 1838 328 1694 306 
Q 1400 269 1197 191 
Q 816 44 719 -72 
Q 600 -216 528 -269 
Q 456 -325 316 -325 
Q 72 -325 72 -109 
Q 72 128 181 275 
Q 353 513 594 672 
Q 716 753 877 845 
Q 1038 938 1244 1044 
Q 1394 1119 1547 1205 
Q 1700 1291 1825 1409 
Q 1938 1509 2055 1617 
Q 2172 1725 2294 1834 
Q 2541 2059 2691 2259 
Q 2850 2466 2954 2661 
Q 3059 2856 3059 3053 
Q 3059 3197 2938 3353 
Q 2819 3509 2638 3619 
Q 2466 3725 2319 3725 
Q 2141 3725 1819 3531 
Q 1659 3434 1532 3345 
Q 1406 3256 1313 3169 
Q 1278 3138 1242 3102 
Q 1206 3066 1172 3025 
Q 1138 2984 1103 2956 
Q 1069 2928 1026 2912 
Q 984 2897 929 2889 
Q 875 2881 800 2881 
Q 741 2881 669 3019 
Q 603 3153 603 3231 
Q 603 3309 647 3347 
Q 700 3391 795 3455 
Q 891 3519 994 3591 
Q 1147 3700 1280 3789 
Q 1413 3878 1528 3950 
Q 1647 4022 1767 4076 
Q 1888 4131 2019 4172 
Q 2216 4231 2569 4231 
Q 2878 4231 3156 3981 
Q 3434 3731 3619 3397 
Q 3731 3172 3731 3144 
Q 3731 2897 3525 2556 
Q 3425 2384 3301 2218 
Q 3178 2053 3034 1891 
Q 2753 1572 2522 1375 
Q 2084 994 1697 794 
Q 1778 800 1900 803 
Q 2022 806 2191 806 
Q 2522 806 3175 769 
Q 3263 763 3356 758 
Q 3450 753 3550 747 
Q 3750 738 3866 738 
Q 3944 738 4075 788 
Q 4206 838 4269 838 
Q 4322 838 4391 759 
Q 4463 678 4463 622 
z
" transform="scale(0.015625)"/>
       </defs>
       <use xlink:href="#SegoeScript-4a"/>
       <use xlink:href="#SegoeScript-75" transform="translate(61.279297 0)"/>
       <use xlink:href="#SegoeScript-6c" transform="translate(137.695312 0)"/>
       <use xlink:href="#SegoeScript-20" transform="translate(182.080078 0)"/>
       <use xlink:href="#SegoeScript-31" transform="translate(222.070312 0)"/>
       <use xlink:href="#SegoeScript-32" transform="translate(295.117188 0)"/>
      </g>
     </g>
    </g>
    <g id="xtick_5">
     <g id="line2d_9">
      <path d="M 668.128018 370.960464 
L 668.128018 29.04 
" clip-path="url(#pb66ca223e5)" style="fill: none; stroke: #b0b0b0; stroke-width: 0.8; stroke-linecap: square"/>
     </g>
     <g id="line2d_10">
      <g>
       <use xlink:href="#md8640c1143" x="668.128018" y="370.960464" style="stroke: #000000; stroke-width: 0.8"/>
      </g>
     </g>
     <g id="text_5">
      <!-- Jul 13 -->
      <g transform="translate(635.030117 402.940025) rotate(-30) scale(0.1 -0.1)">
       <defs>
        <path id="SegoeScript-33" d="M 4197 1663 
Q 4197 1544 4078 1306 
Q 4019 1188 3969 1100 
Q 3919 1013 3875 953 
Q 3778 825 3600 666 
Q 3425 509 3294 434 
Q 3116 334 2902 251 
Q 2688 169 2431 100 
Q 1919 -31 1500 -31 
Q 1416 -31 1311 -23 
Q 1206 -16 1081 0 
Q 831 28 650 84 
Q 594 100 550 137 
Q 506 175 476 225 
Q 447 275 430 334 
Q 413 394 413 453 
Q 413 603 495 692 
Q 578 781 722 781 
Q 734 781 768 765 
Q 803 750 878 719 
Q 953 688 984 673 
Q 1016 659 1047 647 
Q 1384 513 1634 513 
Q 1953 513 2494 634 
Q 2903 719 3191 959 
Q 3653 1347 3653 1581 
Q 3653 1922 3300 2031 
Q 2947 2144 2500 2144 
Q 1891 2144 1481 1913 
Q 1253 1913 1253 2047 
Q 1253 2097 1288 2191 
Q 1319 2275 1366 2322 
Q 1406 2363 1478 2425 
Q 1550 2488 1656 2578 
Q 1941 2834 2239 3076 
Q 2538 3319 2859 3547 
Q 2838 3550 2811 3551 
Q 2784 3553 2750 3553 
Q 2581 3553 2370 3531 
Q 2159 3509 1940 3482 
Q 1722 3456 1511 3434 
Q 1300 3413 1131 3413 
Q 878 3413 736 3536 
Q 594 3659 594 3903 
Q 594 4000 658 4073 
Q 722 4147 816 4147 
Q 884 4147 984 4075 
Q 1034 4041 1078 4014 
Q 1122 3988 1156 3972 
Q 1234 3938 1388 3938 
Q 1609 3938 2200 3994 
Q 2334 4009 2501 4023 
Q 2669 4038 2872 4053 
Q 3075 4069 3217 4076 
Q 3359 4084 3441 4084 
Q 3825 4084 3825 3834 
Q 3825 3663 3703 3559 
Q 3616 3491 3494 3408 
Q 3372 3325 3209 3228 
Q 3047 3131 2919 3051 
Q 2791 2972 2694 2903 
Q 2597 2834 2509 2750 
Q 2422 2666 2341 2566 
Q 2513 2578 2642 2584 
Q 2772 2591 2859 2591 
Q 3172 2591 3397 2528 
Q 3666 2447 3816 2334 
Q 3959 2228 4131 1984 
Q 4197 1900 4197 1663 
z
" transform="scale(0.015625)"/>
       </defs>
       <use xlink:href="#SegoeScript-4a"/>
       <use xlink:href="#SegoeScript-75" transform="translate(61.279297 0)"/>
       <use xlink:href="#SegoeScript-6c" transform="translate(137.695312 0)"/>
       <use xlink:href="#SegoeScript-20" transform="translate(182.080078 0)"/>
       <use xlink:href="#SegoeScript-31" transform="translate(222.070312 0)"/>
       <use xlink:href="#SegoeScript-33" transform="translate(295.117188 0)"/>
      </g>
     </g>
    </g>
    <g id="text_6">
     <!-- Day with month -->
     <g transform="translate(329.755938 418.12774) scale(0.12 -0.12)">
      <defs>
       <path id="SegoeScript-44" d="M 5294 2834 
Q 5294 2438 4997 2066 
Q 4697 1691 4244 1384 
Q 4016 1231 3780 1098 
Q 3544 966 3297 856 
Q 3050 747 2833 664 
Q 2616 581 2425 525 
Q 2194 453 1863 300 
Q 1838 288 1800 267 
Q 1763 247 1709 219 
Q 1606 159 1544 147 
Q 1266 84 1184 84 
Q 1034 84 928 175 
Q 822 266 788 416 
Q 756 547 742 634 
Q 728 722 728 769 
Q 728 813 747 897 
Q 769 981 769 1044 
Q 769 1091 775 1152 
Q 781 1213 794 1291 
Q 806 1369 814 1417 
Q 822 1466 825 1491 
Q 838 1569 872 1786 
Q 906 2003 959 2363 
Q 991 2553 1031 2765 
Q 1072 2978 1125 3219 
Q 1131 3241 1139 3275 
Q 1147 3309 1159 3356 
Q 1184 3450 1196 3515 
Q 1209 3581 1209 3641 
Q 1209 3703 1171 3747 
Q 1134 3791 1066 3838 
Q 1000 3888 973 3920 
Q 947 3953 947 4019 
Q 947 4144 1053 4269 
Q 1163 4397 1281 4397 
Q 1425 4397 1666 4369 
Q 1903 4341 1997 4341 
Q 2156 4341 2481 4359 
Q 2803 4378 2963 4378 
Q 3416 4378 3816 4306 
Q 4216 4234 4538 4050 
Q 4625 4000 4794 3872 
Q 4963 3753 5128 3403 
Q 5294 3053 5294 2834 
z
M 4750 2834 
Q 4750 3269 4431 3500 
Q 4116 3728 3681 3800 
Q 3466 3834 3242 3853 
Q 3019 3872 2784 3872 
Q 2713 3872 2634 3867 
Q 2556 3863 2469 3856 
Q 2297 3841 2144 3825 
Q 1991 3809 1813 3803 
Q 1769 3597 1725 3373 
Q 1681 3150 1638 2906 
Q 1628 2847 1609 2751 
Q 1591 2656 1563 2516 
Q 1538 2375 1514 2259 
Q 1491 2144 1475 2044 
Q 1459 1944 1443 1836 
Q 1428 1728 1415 1617 
Q 1403 1506 1395 1398 
Q 1388 1291 1388 1197 
Q 1388 969 1459 825 
Q 1694 856 1938 928 
Q 2059 963 2192 1006 
Q 2325 1050 2469 1103 
Q 2616 1156 2727 1195 
Q 2838 1234 2919 1259 
Q 3878 1575 4172 1850 
Q 4219 1894 4278 1962 
Q 4338 2031 4409 2128 
Q 4553 2322 4653 2519 
Q 4750 2709 4750 2834 
z
" transform="scale(0.015625)"/>
       <path id="SegoeScript-61" d="M 5156 2128 
Q 5156 2091 5147 2039 
Q 5138 1988 5120 1934 
Q 5103 1881 5083 1832 
Q 5063 1784 5041 1756 
Q 5022 1731 4986 1689 
Q 4950 1647 4906 1597 
Q 4863 1547 4811 1492 
Q 4759 1438 4703 1388 
Q 4509 1209 4323 1042 
Q 4138 875 3941 747 
Q 3744 619 3530 542 
Q 3316 466 3066 469 
Q 2950 469 2833 511 
Q 2716 553 2612 631 
Q 2509 709 2434 818 
Q 2359 928 2328 1059 
Q 2238 966 2138 864 
Q 2038 763 1930 659 
Q 1822 556 1706 459 
Q 1591 363 1469 281 
Q 1400 238 1304 188 
Q 1209 138 1104 95 
Q 1000 53 895 26 
Q 791 0 706 0 
Q 578 0 486 79 
Q 394 159 333 275 
Q 272 391 242 522 
Q 213 653 213 756 
Q 213 963 272 1178 
Q 331 1394 426 1598 
Q 522 1803 639 1987 
Q 756 2172 869 2316 
Q 988 2466 1150 2614 
Q 1313 2763 1488 2880 
Q 1663 2997 1831 3069 
Q 2000 3141 2131 3141 
Q 2197 3141 2270 3141 
Q 2344 3141 2416 3133 
Q 2488 3125 2556 3108 
Q 2625 3091 2681 3056 
Q 2709 3038 2746 2984 
Q 2784 2931 2817 2865 
Q 2850 2800 2872 2734 
Q 2894 2669 2894 2631 
Q 2894 2528 2847 2356 
Q 2797 2141 2755 1964 
Q 2713 1788 2713 1600 
Q 2713 1494 2747 1383 
Q 2781 1272 2845 1181 
Q 2909 1091 3001 1033 
Q 3094 975 3209 975 
Q 3400 975 3600 1054 
Q 3800 1134 4004 1273 
Q 4209 1413 4412 1595 
Q 4616 1778 4813 1984 
Q 4828 2003 4867 2048 
Q 4906 2094 4948 2139 
Q 4991 2184 5031 2220 
Q 5072 2256 5091 2256 
Q 5156 2256 5156 2128 
z
M 2375 2388 
Q 2375 2441 2369 2519 
Q 2363 2597 2328 2647 
Q 2294 2697 2244 2695 
Q 2194 2694 2144 2694 
Q 2034 2694 1932 2659 
Q 1831 2625 1734 2564 
Q 1638 2503 1548 2423 
Q 1459 2344 1375 2256 
Q 1303 2184 1223 2078 
Q 1144 1972 1067 1845 
Q 991 1719 919 1580 
Q 847 1441 794 1305 
Q 741 1169 709 1042 
Q 678 916 678 813 
Q 678 781 686 729 
Q 694 678 711 629 
Q 728 581 758 547 
Q 788 513 831 513 
Q 975 513 1191 603 
Q 1484 728 1723 945 
Q 1963 1163 2131 1447 
Q 2375 1888 2375 2388 
z
" transform="scale(0.015625)"/>
       <path id="SegoeScript-79" d="M 3647 2791 
Q 3647 2738 3644 2667 
Q 3641 2597 3634 2506 
Q 3628 2419 3620 2325 
Q 3613 2231 3603 2131 
Q 3594 2031 3587 1954 
Q 3581 1878 3578 1825 
Q 3556 1397 3487 945 
Q 3419 494 3316 84 
Q 3150 -594 2834 -1075 
Q 2516 -1563 1953 -1563 
Q 1584 -1563 1209 -1416 
Q 838 -1272 581 -1013 
Q 428 -831 428 -763 
Q 428 -684 475 -584 
Q 525 -488 588 -488 
Q 622 -488 647 -525 
Q 753 -675 850 -763 
Q 1266 -1131 1931 -1131 
Q 2194 -1131 2391 -881 
Q 2491 -759 2567 -618 
Q 2644 -478 2703 -325 
Q 2763 -172 2809 -12 
Q 2856 147 2894 313 
Q 2925 466 2942 556 
Q 2959 647 2963 678 
Q 2978 809 2984 931 
Q 2991 1053 3009 1172 
Q 2922 1131 2650 966 
Q 2491 869 2359 791 
Q 2228 713 2125 653 
Q 1919 531 1659 422 
Q 1397 313 1228 313 
Q 934 313 775 547 
Q 616 781 616 1088 
Q 616 1306 663 1575 
Q 688 1709 714 1826 
Q 741 1944 772 2047 
Q 803 2150 845 2294 
Q 888 2438 947 2625 
Q 978 2728 1015 2804 
Q 1053 2881 1101 2932 
Q 1150 2984 1215 3009 
Q 1281 3034 1375 3034 
Q 1466 3034 1519 2931 
Q 1569 2834 1569 2731 
Q 1569 2669 1541 2619 
Q 1525 2594 1497 2547 
Q 1469 2500 1425 2431 
Q 1381 2363 1356 2317 
Q 1331 2272 1325 2247 
Q 1300 2172 1281 2115 
Q 1263 2059 1247 2022 
Q 1234 1984 1218 1932 
Q 1203 1881 1181 1813 
Q 1141 1678 1123 1567 
Q 1106 1456 1106 1331 
Q 1106 1206 1156 1028 
Q 1209 844 1300 844 
Q 1575 844 1966 1003 
Q 2356 1166 2672 1425 
Q 2988 1684 3053 1947 
Q 3066 1984 3072 2059 
Q 3078 2134 3083 2226 
Q 3088 2319 3091 2419 
Q 3094 2519 3098 2611 
Q 3103 2703 3109 2776 
Q 3116 2850 3128 2888 
Q 3209 3175 3391 3175 
Q 3563 3175 3603 3088 
Q 3647 2994 3647 2791 
z
" transform="scale(0.015625)"/>
       <path id="SegoeScript-77" d="M 7091 2609 
Q 7091 2538 7058 2472 
Q 7025 2406 6970 2350 
Q 6916 2294 6848 2245 
Q 6781 2197 6713 2163 
Q 6553 2081 6353 2028 
Q 6153 1975 5903 1975 
Q 5778 1975 5670 1992 
Q 5563 2009 5466 2037 
Q 5369 2066 5284 2098 
Q 5200 2131 5125 2163 
Q 4991 1963 4875 1711 
Q 4759 1459 4644 1138 
Q 4588 981 4547 864 
Q 4506 747 4468 639 
Q 4431 531 4390 418 
Q 4350 306 4294 159 
Q 4278 116 4236 55 
Q 4194 -6 4139 -62 
Q 4084 -119 4025 -158 
Q 3966 -197 3916 -197 
Q 3781 -197 3664 -97 
Q 3547 3 3463 144 
Q 3281 463 3151 797 
Q 3022 1131 2941 1466 
Q 2859 1813 2841 1813 
Q 2819 1813 2776 1736 
Q 2734 1659 2679 1542 
Q 2625 1425 2565 1284 
Q 2506 1144 2454 1019 
Q 2403 894 2367 801 
Q 2331 709 2322 684 
Q 2047 -28 1741 -325 
Q 1716 -353 1672 -353 
Q 1559 -353 1462 -278 
Q 1366 -203 1306 -97 
Q 1291 -69 1264 1 
Q 1238 72 1203 164 
Q 1169 256 1133 359 
Q 1097 463 1065 555 
Q 1034 647 1011 719 
Q 988 791 978 819 
Q 928 984 878 1203 
Q 828 1422 787 1650 
Q 747 1878 720 2090 
Q 694 2303 694 2456 
Q 694 2650 792 2736 
Q 891 2822 1069 2822 
Q 1128 2822 1167 2764 
Q 1206 2706 1226 2615 
Q 1247 2525 1256 2414 
Q 1266 2303 1270 2200 
Q 1275 2097 1278 2009 
Q 1281 1922 1291 1881 
Q 1309 1725 1340 1556 
Q 1372 1388 1411 1225 
Q 1450 1063 1492 916 
Q 1534 769 1573 658 
Q 1613 547 1647 481 
Q 1681 416 1703 416 
Q 1738 416 1823 544 
Q 1909 672 2019 944 
Q 2116 1191 2195 1389 
Q 2275 1588 2350 1770 
Q 2425 1953 2504 2131 
Q 2584 2309 2681 2516 
Q 2700 2563 2736 2608 
Q 2772 2653 2817 2689 
Q 2863 2725 2911 2748 
Q 2959 2772 3003 2772 
Q 3144 2772 3169 2559 
Q 3281 1672 3488 1078 
Q 3694 488 3878 488 
Q 3931 488 3986 556 
Q 4041 625 4094 736 
Q 4147 847 4195 984 
Q 4244 1122 4287 1258 
Q 4331 1394 4367 1516 
Q 4403 1638 4428 1716 
Q 4469 1841 4517 1973 
Q 4566 2106 4622 2239 
Q 4678 2372 4743 2497 
Q 4809 2622 4884 2731 
Q 4981 2875 5081 2875 
Q 5150 2869 5195 2856 
Q 5241 2844 5272 2823 
Q 5303 2803 5328 2773 
Q 5353 2744 5384 2703 
Q 5422 2650 5498 2604 
Q 5575 2559 5662 2523 
Q 5750 2488 5837 2467 
Q 5925 2447 5984 2447 
Q 6231 2447 6475 2492 
Q 6719 2538 6944 2675 
Q 6959 2684 6975 2696 
Q 6991 2709 7016 2709 
Q 7047 2709 7069 2693 
Q 7091 2678 7091 2609 
z
" transform="scale(0.015625)"/>
       <path id="SegoeScript-69" d="M 1875 4575 
Q 1875 4372 1769 4228 
Q 1666 4084 1466 4084 
Q 1341 4084 1188 4122 
Q 1038 4159 1038 4244 
Q 1038 4397 1133 4536 
Q 1228 4675 1363 4763 
Q 1469 4825 1503 4825 
Q 1681 4825 1778 4776 
Q 1875 4728 1875 4575 
z
M 3922 2034 
Q 3925 1969 3864 1856 
Q 3803 1744 3698 1601 
Q 3594 1459 3455 1296 
Q 3316 1134 3163 972 
Q 2988 784 2792 611 
Q 2597 438 2375 275 
Q 1938 -50 1594 -50 
Q 1216 -50 1006 203 
Q 797 459 722 822 
Q 647 1181 647 1563 
Q 647 1722 684 2059 
Q 703 2228 722 2350 
Q 741 2472 763 2547 
Q 806 2694 947 2803 
Q 1091 2919 1247 2919 
Q 1331 2919 1331 2759 
Q 1331 2653 1311 2518 
Q 1291 2384 1269 2253 
Q 1228 2006 1209 1811 
Q 1191 1616 1191 1472 
Q 1191 1156 1278 834 
Q 1366 506 1594 506 
Q 1825 506 2131 675 
Q 2284 763 2437 869 
Q 2591 975 2744 1106 
Q 2900 1238 3044 1370 
Q 3188 1503 3325 1644 
Q 3463 1784 3572 1906 
Q 3681 2028 3763 2131 
Q 3766 2138 3773 2152 
Q 3781 2166 3790 2180 
Q 3800 2194 3809 2203 
Q 3819 2213 3828 2209 
Q 3872 2209 3894 2141 
Q 3922 2075 3922 2034 
z
" transform="scale(0.015625)"/>
       <path id="SegoeScript-74" d="M 3794 2753 
Q 3794 2638 3731 2577 
Q 3669 2516 3588 2469 
Q 3484 2422 3357 2384 
Q 3231 2347 3098 2317 
Q 2966 2288 2831 2267 
Q 2697 2247 2575 2234 
Q 2444 2222 2297 2209 
Q 2150 2197 2012 2183 
Q 1875 2169 1758 2150 
Q 1641 2131 1569 2103 
Q 1503 1819 1429 1561 
Q 1356 1303 1306 1047 
Q 1294 988 1273 869 
Q 1253 750 1234 620 
Q 1216 491 1202 377 
Q 1188 263 1188 213 
Q 1188 84 1228 20 
Q 1269 -44 1317 -83 
Q 1366 -122 1406 -156 
Q 1447 -191 1447 -259 
Q 1447 -303 1405 -343 
Q 1363 -384 1303 -415 
Q 1244 -447 1176 -464 
Q 1109 -481 1059 -481 
Q 969 -481 897 -431 
Q 825 -381 775 -301 
Q 725 -222 697 -119 
Q 669 -16 669 94 
Q 669 238 694 402 
Q 719 566 756 737 
Q 794 909 836 1089 
Q 878 1269 916 1447 
Q 931 1522 948 1601 
Q 966 1681 980 1751 
Q 994 1822 1003 1869 
Q 1013 1916 1013 1925 
Q 1013 1975 977 2001 
Q 941 2028 891 2028 
Q 853 2028 778 2022 
Q 703 2016 620 2006 
Q 538 1997 463 1990 
Q 388 1984 353 1984 
Q 241 1984 162 1998 
Q 84 2013 35 2050 
Q -13 2088 -36 2155 
Q -59 2222 -59 2328 
Q -59 2372 -18 2397 
Q 22 2422 80 2433 
Q 138 2444 203 2445 
Q 269 2447 319 2447 
Q 359 2447 451 2455 
Q 544 2463 645 2472 
Q 747 2481 839 2489 
Q 931 2497 972 2497 
Q 991 2497 1016 2500 
Q 1041 2503 1067 2517 
Q 1094 2531 1116 2564 
Q 1138 2597 1153 2656 
Q 1175 2753 1206 2883 
Q 1238 3013 1270 3148 
Q 1303 3284 1334 3411 
Q 1366 3538 1388 3628 
Q 1416 3716 1436 3816 
Q 1456 3916 1473 4016 
Q 1491 4116 1512 4209 
Q 1534 4303 1569 4381 
Q 1638 4544 1791 4544 
Q 2022 4544 2022 4288 
Q 2022 4128 1953 3922 
Q 1803 3447 1731 3139 
Q 1659 2831 1659 2725 
Q 1659 2609 1775 2609 
Q 1916 2609 2039 2614 
Q 2163 2619 2289 2630 
Q 2416 2641 2556 2656 
Q 2697 2672 2872 2691 
Q 2997 2706 3111 2728 
Q 3225 2750 3322 2770 
Q 3419 2791 3494 2809 
Q 3569 2828 3619 2834 
Q 3653 2838 3686 2844 
Q 3719 2850 3742 2845 
Q 3766 2841 3780 2820 
Q 3794 2800 3794 2753 
z
" transform="scale(0.015625)"/>
       <path id="SegoeScript-68" d="M 6088 2053 
Q 6088 1988 5994 1847 
Q 5959 1791 5906 1722 
Q 5853 1653 5795 1583 
Q 5738 1513 5681 1450 
Q 5625 1388 5581 1344 
Q 5400 1159 5197 990 
Q 4994 822 4776 689 
Q 4559 556 4326 475 
Q 4094 394 3853 391 
Q 3669 391 3526 459 
Q 3384 528 3303 681 
Q 3222 834 3181 1025 
Q 3141 1216 3116 1434 
Q 3113 1469 3106 1537 
Q 3100 1606 3092 1689 
Q 3084 1772 3071 1859 
Q 3059 1947 3043 2019 
Q 3028 2091 3008 2136 
Q 2988 2181 2963 2181 
Q 2866 2181 2697 2051 
Q 2528 1922 2328 1711 
Q 2128 1500 1918 1234 
Q 1709 969 1528 694 
Q 1369 456 1239 217 
Q 1109 -22 1013 -200 
Q 959 -281 900 -314 
Q 841 -347 819 -347 
Q 769 -347 717 -323 
Q 666 -300 623 -262 
Q 581 -225 554 -176 
Q 528 -128 528 -81 
Q 528 -41 542 51 
Q 556 144 575 259 
Q 594 375 612 498 
Q 631 622 644 728 
Q 666 934 694 1181 
Q 722 1428 747 1679 
Q 772 1931 794 2172 
Q 816 2413 828 2606 
Q 831 2669 837 2772 
Q 844 2875 850 2998 
Q 856 3122 862 3259 
Q 869 3397 875 3526 
Q 881 3656 886 3770 
Q 891 3884 894 3963 
Q 897 4050 905 4125 
Q 913 4200 927 4273 
Q 941 4347 967 4420 
Q 994 4494 1034 4581 
Q 1047 4609 1075 4643 
Q 1103 4678 1139 4706 
Q 1175 4734 1217 4754 
Q 1259 4775 1303 4775 
Q 1394 4775 1467 4703 
Q 1541 4631 1541 4503 
Q 1541 4463 1527 4394 
Q 1513 4325 1494 4251 
Q 1475 4178 1458 4111 
Q 1441 4044 1434 4009 
Q 1409 3881 1390 3715 
Q 1372 3550 1355 3378 
Q 1338 3206 1325 3039 
Q 1313 2872 1303 2741 
Q 1294 2591 1280 2459 
Q 1266 2328 1252 2198 
Q 1238 2069 1225 1936 
Q 1213 1803 1200 1650 
Q 1178 1419 1150 1242 
Q 1122 1066 1122 941 
Q 1122 922 1142 897 
Q 1163 872 1178 872 
L 1191 872 
Q 1219 906 1262 975 
Q 1306 1044 1362 1125 
Q 1419 1206 1480 1295 
Q 1541 1384 1600 1459 
Q 1659 1534 1729 1623 
Q 1800 1713 1876 1803 
Q 1953 1894 2033 1984 
Q 2113 2075 2188 2153 
Q 2284 2250 2403 2356 
Q 2522 2463 2651 2550 
Q 2781 2638 2912 2694 
Q 3044 2750 3163 2750 
Q 3184 2750 3220 2737 
Q 3256 2725 3292 2701 
Q 3328 2678 3359 2645 
Q 3391 2613 3406 2569 
Q 3469 2400 3497 2231 
Q 3525 2063 3547 1875 
Q 3566 1716 3587 1547 
Q 3609 1378 3643 1240 
Q 3678 1103 3733 1015 
Q 3788 928 3872 928 
Q 4256 928 4609 1100 
Q 4797 1191 4933 1275 
Q 5069 1359 5186 1450 
Q 5303 1541 5418 1650 
Q 5534 1759 5688 1903 
Q 5991 2181 6041 2181 
Q 6088 2181 6088 2053 
z
" transform="scale(0.015625)"/>
       <path id="SegoeScript-6d" d="M 7469 2178 
Q 7469 2150 7458 2106 
Q 7447 2063 7430 2013 
Q 7413 1963 7389 1911 
Q 7366 1859 7338 1819 
Q 7284 1738 7198 1631 
Q 7113 1525 7009 1411 
Q 6906 1297 6789 1183 
Q 6672 1069 6559 975 
Q 6469 900 6350 809 
Q 6231 719 6100 641 
Q 5969 563 5831 511 
Q 5694 459 5572 459 
Q 5463 459 5373 490 
Q 5284 522 5211 608 
Q 5138 694 5081 844 
Q 5025 994 4984 1231 
Q 4966 1331 4952 1445 
Q 4938 1559 4923 1671 
Q 4909 1784 4896 1889 
Q 4884 1994 4867 2073 
Q 4850 2153 4829 2200 
Q 4809 2247 4784 2247 
Q 4744 2247 4670 2178 
Q 4597 2109 4498 1979 
Q 4400 1850 4283 1669 
Q 4166 1488 4038 1263 
Q 3784 813 3609 578 
Q 3434 344 3291 344 
Q 3075 344 3000 547 
Q 2931 753 2916 1238 
Q 2906 1709 2848 1964 
Q 2791 2219 2700 2219 
Q 2644 2219 2536 2117 
Q 2428 2016 2292 1837 
Q 2156 1659 1997 1417 
Q 1838 1175 1678 891 
Q 1634 816 1578 719 
Q 1522 622 1464 523 
Q 1406 425 1351 337 
Q 1297 250 1256 194 
Q 1166 63 1038 63 
Q 800 63 725 306 
Q 706 369 695 408 
Q 684 447 678 486 
Q 672 525 670 572 
Q 669 619 669 694 
Q 669 819 676 923 
Q 684 1028 696 1134 
Q 709 1241 728 1362 
Q 747 1484 766 1647 
Q 781 1781 793 1934 
Q 806 2088 817 2233 
Q 828 2378 839 2500 
Q 850 2622 869 2694 
Q 878 2731 912 2781 
Q 947 2831 992 2876 
Q 1038 2922 1088 2955 
Q 1138 2988 1175 2988 
Q 1241 2988 1283 2958 
Q 1325 2928 1351 2878 
Q 1378 2828 1389 2761 
Q 1400 2694 1400 2622 
Q 1400 2547 1386 2434 
Q 1372 2322 1350 2190 
Q 1328 2059 1301 1918 
Q 1275 1778 1250 1650 
Q 1225 1522 1204 1414 
Q 1184 1306 1175 1238 
Q 1147 1066 1137 964 
Q 1128 863 1128 800 
Q 1169 841 1231 922 
Q 1294 1003 1369 1112 
Q 1444 1222 1526 1353 
Q 1609 1484 1694 1622 
Q 1753 1719 1826 1841 
Q 1900 1963 1979 2086 
Q 2059 2209 2137 2318 
Q 2216 2428 2281 2503 
Q 2413 2653 2553 2731 
Q 2694 2809 2847 2809 
Q 2997 2809 3108 2692 
Q 3219 2575 3256 2388 
Q 3275 2300 3286 2186 
Q 3297 2072 3306 1947 
Q 3316 1822 3323 1697 
Q 3331 1572 3341 1459 
Q 3350 1350 3367 1278 
Q 3384 1206 3403 1164 
Q 3422 1122 3437 1105 
Q 3453 1088 3463 1088 
Q 3522 1088 3663 1334 
Q 3734 1459 3821 1612 
Q 3909 1766 4016 1950 
Q 4122 2131 4244 2300 
Q 4366 2469 4483 2598 
Q 4600 2728 4703 2804 
Q 4806 2881 4878 2881 
Q 4925 2881 4975 2872 
Q 5025 2863 5072 2844 
Q 5119 2825 5155 2798 
Q 5191 2772 5209 2741 
Q 5256 2666 5276 2570 
Q 5297 2475 5306 2351 
Q 5316 2228 5323 2076 
Q 5331 1925 5350 1741 
Q 5394 1350 5486 1158 
Q 5578 966 5750 966 
Q 5816 966 5916 1009 
Q 6016 1053 6128 1123 
Q 6241 1194 6356 1283 
Q 6472 1372 6572 1459 
Q 6672 1547 6764 1636 
Q 6856 1725 6950 1817 
Q 7044 1909 7142 2009 
Q 7241 2109 7353 2222 
Q 7391 2259 7422 2259 
Q 7469 2259 7469 2178 
z
" transform="scale(0.015625)"/>
       <path id="SegoeScript-6f" d="M 4891 2619 
Q 4891 2566 4867 2511 
Q 4844 2456 4806 2404 
Q 4769 2353 4723 2308 
Q 4678 2263 4631 2234 
Q 4522 2163 4320 2108 
Q 4119 2053 3822 2053 
Q 3584 2053 3343 2114 
Q 3103 2175 2881 2316 
Q 2953 2206 2973 2106 
Q 2994 2006 2994 1869 
Q 2994 1622 2869 1344 
Q 2747 1063 2553 822 
Q 2359 581 2144 422 
Q 2022 331 1876 264 
Q 1731 197 1572 155 
Q 1413 113 1241 92 
Q 1069 72 894 72 
Q 772 72 656 150 
Q 541 228 450 340 
Q 359 453 304 581 
Q 250 709 250 813 
Q 250 1066 317 1298 
Q 384 1531 498 1748 
Q 613 1966 763 2173 
Q 913 2381 1081 2588 
Q 1175 2703 1295 2814 
Q 1416 2925 1547 3012 
Q 1678 3100 1812 3154 
Q 1947 3209 2069 3209 
Q 2169 3209 2241 3181 
Q 2313 3153 2377 3101 
Q 2441 3050 2508 2972 
Q 2575 2894 2663 2797 
Q 2691 2769 2817 2714 
Q 2944 2659 3117 2607 
Q 3291 2556 3481 2517 
Q 3672 2478 3828 2478 
Q 3984 2478 4115 2489 
Q 4247 2500 4370 2525 
Q 4494 2550 4616 2594 
Q 4738 2638 4878 2700 
Q 4891 2653 4891 2619 
z
M 2556 1869 
Q 2559 1956 2543 2067 
Q 2528 2178 2489 2276 
Q 2450 2375 2386 2437 
Q 2322 2500 2228 2488 
Q 2084 2544 1990 2606 
Q 1897 2669 1847 2669 
Q 1809 2669 1765 2645 
Q 1722 2622 1675 2581 
Q 1628 2541 1579 2486 
Q 1531 2431 1484 2372 
Q 1391 2250 1311 2150 
Q 1231 2050 1161 1951 
Q 1091 1853 1025 1745 
Q 959 1638 894 1503 
Q 866 1447 844 1369 
Q 822 1291 806 1208 
Q 791 1125 783 1042 
Q 775 959 775 894 
Q 775 853 803 795 
Q 831 738 876 683 
Q 922 628 980 590 
Q 1038 553 1094 553 
Q 1253 553 1365 567 
Q 1478 581 1573 617 
Q 1669 653 1766 715 
Q 1863 778 1991 878 
Q 2053 925 2114 987 
Q 2175 1050 2234 1120 
Q 2294 1191 2347 1264 
Q 2400 1338 2447 1409 
Q 2478 1456 2500 1525 
Q 2522 1594 2534 1662 
Q 2547 1731 2551 1787 
Q 2556 1844 2556 1869 
z
" transform="scale(0.015625)"/>
       <path id="SegoeScript-6e" d="M 5900 2234 
Q 5900 2175 5879 2114 
Q 5859 2053 5829 1992 
Q 5800 1931 5762 1873 
Q 5725 1816 5691 1763 
Q 5600 1622 5478 1476 
Q 5356 1331 5217 1193 
Q 5078 1056 4931 934 
Q 4784 813 4644 719 
Q 4531 644 4429 578 
Q 4328 513 4225 466 
Q 4122 419 4009 391 
Q 3897 363 3763 363 
Q 3503 363 3341 494 
Q 3259 559 3198 664 
Q 3138 769 3092 897 
Q 3047 1025 3014 1169 
Q 2981 1313 2959 1453 
Q 2931 1628 2906 1767 
Q 2881 1906 2848 2001 
Q 2816 2097 2769 2148 
Q 2722 2200 2647 2200 
Q 2588 2200 2534 2187 
Q 2481 2175 2423 2137 
Q 2366 2100 2297 2031 
Q 2228 1963 2136 1850 
Q 2044 1738 1925 1575 
Q 1806 1413 1647 1188 
Q 1569 1078 1462 947 
Q 1356 816 1245 697 
Q 1134 578 1028 487 
Q 922 397 841 372 
Q 566 431 566 1056 
Q 566 1222 603 1559 
Q 622 1713 647 1880 
Q 672 2047 709 2214 
Q 747 2381 795 2539 
Q 844 2697 909 2831 
Q 941 2894 975 2930 
Q 1009 2966 1045 2983 
Q 1081 3000 1120 3004 
Q 1159 3009 1200 3009 
Q 1250 3009 1289 2940 
Q 1328 2872 1328 2750 
Q 1328 2675 1315 2609 
Q 1303 2544 1281 2475 
Q 1259 2406 1234 2326 
Q 1209 2247 1184 2144 
Q 1166 2059 1142 1956 
Q 1119 1853 1098 1747 
Q 1078 1641 1064 1539 
Q 1050 1438 1050 1356 
Q 1050 1300 1069 1241 
Q 1156 1250 1356 1503 
Q 1459 1631 1582 1784 
Q 1706 1938 1850 2122 
Q 1956 2259 2061 2378 
Q 2166 2497 2278 2586 
Q 2391 2675 2517 2726 
Q 2644 2778 2797 2778 
Q 2959 2778 3067 2708 
Q 3175 2638 3240 2514 
Q 3306 2391 3342 2219 
Q 3378 2047 3400 1841 
Q 3419 1666 3436 1494 
Q 3453 1322 3503 1186 
Q 3553 1050 3647 965 
Q 3741 881 3916 881 
Q 4050 881 4197 943 
Q 4344 1006 4506 1117 
Q 4669 1228 4842 1378 
Q 5016 1528 5200 1706 
Q 5272 1775 5358 1879 
Q 5444 1984 5526 2081 
Q 5609 2178 5681 2247 
Q 5753 2316 5797 2316 
Q 5816 2316 5858 2297 
Q 5900 2278 5900 2234 
z
" transform="scale(0.015625)"/>
      </defs>
      <use xlink:href="#SegoeScript-44"/>
      <use xlink:href="#SegoeScript-61" transform="translate(86.816406 0)"/>
      <use xlink:href="#SegoeScript-79" transform="translate(152.392578 0)"/>
      <use xlink:href="#SegoeScript-20" transform="translate(215.332031 0)"/>
      <use xlink:href="#SegoeScript-77" transform="translate(255.322266 0)"/>
      <use xlink:href="#SegoeScript-69" transform="translate(345.019531 0)"/>
      <use xlink:href="#SegoeScript-74" transform="translate(391.601562 0)"/>
      <use xlink:href="#SegoeScript-68" transform="translate(428.90625 0)"/>
      <use xlink:href="#SegoeScript-20" transform="translate(508.59375 0)"/>
      <use xlink:href="#SegoeScript-6d" transform="translate(548.583984 0)"/>
      <use xlink:href="#SegoeScript-6f" transform="translate(650.341797 0)"/>
      <use xlink:href="#SegoeScript-6e" transform="translate(708.154297 0)"/>
      <use xlink:href="#SegoeScript-74" transform="translate(783.984375 0)"/>
      <use xlink:href="#SegoeScript-68" transform="translate(821.289062 0)"/>
     </g>
    </g>
   </g>
   <g id="matplotlib.axis_2">
    <g id="ytick_1">
     <g id="line2d_11">
      <path d="M 58.43 324.334946 
L 709.2 324.334946 
" clip-path="url(#pb66ca223e5)" style="fill: none; stroke: #b0b0b0; stroke-width: 0.8; stroke-linecap: square"/>
     </g>
     <g id="line2d_12">
      <defs>
       <path id="m088989a8d9" d="M 0 0 
L -3.5 0 
" style="stroke: #000000; stroke-width: 0.8"/>
      </defs>
      <g>
       <use xlink:href="#m088989a8d9" x="58.43" y="324.334946" style="stroke: #000000; stroke-width: 0.8"/>
      </g>
     </g>
     <g id="text_7">
      <!-- 0.96 -->
      <g transform="translate(27.006562 328.128696) scale(0.1 -0.1)">
       <defs>
        <path id="SegoeScript-2e" d="M 1147 659 
Q 1147 597 1119 453 
Q 1103 381 922 231 
Q 738 84 666 84 
Q 581 84 531 106 
Q 481 128 453 175 
Q 425 222 417 294 
Q 409 366 409 469 
Q 409 650 422 722 
Q 434 863 866 863 
L 934 863 
Q 1025 863 1119 756 
Q 1147 728 1147 659 
z
" transform="scale(0.015625)"/>
        <path id="SegoeScript-36" d="M 4281 1472 
Q 4281 1316 4218 1177 
Q 4156 1038 4051 917 
Q 3947 797 3811 690 
Q 3675 584 3531 493 
Q 3388 403 3247 326 
Q 3106 250 2988 184 
Q 2663 6 1881 6 
Q 1653 6 1415 87 
Q 1178 169 981 312 
Q 784 456 651 654 
Q 519 853 497 1088 
Q 500 1341 534 1550 
Q 569 1759 636 1950 
Q 703 2141 808 2323 
Q 913 2506 1053 2706 
Q 1184 2888 1306 3038 
Q 1428 3188 1553 3322 
Q 1678 3456 1814 3579 
Q 1950 3703 2106 3831 
Q 2191 3900 2281 3962 
Q 2372 4025 2462 4073 
Q 2553 4122 2645 4150 
Q 2738 4178 2822 4178 
Q 2872 4178 2925 4159 
Q 2978 4141 3020 4106 
Q 3063 4072 3089 4025 
Q 3116 3978 3116 3922 
Q 3116 3706 2988 3681 
Q 2900 3672 2825 3650 
Q 2750 3628 2678 3592 
Q 2606 3556 2532 3504 
Q 2459 3453 2375 3381 
Q 2125 3169 1890 2914 
Q 1656 2659 1453 2391 
Q 1228 2097 1118 1795 
Q 1009 1494 1009 1228 
Q 1009 1100 1043 1008 
Q 1078 916 1139 845 
Q 1200 775 1287 714 
Q 1375 653 1478 588 
Q 1475 613 1473 655 
Q 1472 697 1472 750 
Q 1472 1169 1594 1403 
Q 1681 1572 1778 1711 
Q 1875 1850 1994 1956 
Q 2113 2063 2255 2136 
Q 2397 2209 2575 2247 
Q 2650 2266 2723 2280 
Q 2797 2294 2876 2303 
Q 2956 2313 3045 2319 
Q 3134 2325 3247 2325 
Q 3419 2325 3603 2261 
Q 3788 2197 3938 2081 
Q 4088 1966 4184 1809 
Q 4281 1653 4281 1472 
z
M 3803 1481 
Q 3803 1541 3748 1608 
Q 3694 1675 3592 1729 
Q 3491 1784 3348 1820 
Q 3206 1856 3031 1856 
Q 2731 1856 2512 1762 
Q 2294 1669 2151 1497 
Q 2009 1325 1934 1083 
Q 1859 841 1847 544 
Q 1906 525 1956 515 
Q 2006 506 2057 504 
Q 2109 503 2164 504 
Q 2219 506 2284 506 
Q 2447 506 2625 559 
Q 2803 613 2972 694 
Q 3141 775 3287 873 
Q 3434 972 3531 1066 
Q 3666 1194 3734 1287 
Q 3803 1381 3803 1481 
z
" transform="scale(0.015625)"/>
       </defs>
       <use xlink:href="#SegoeScript-30"/>
       <use xlink:href="#SegoeScript-2e" transform="translate(73.046875 0)"/>
       <use xlink:href="#SegoeScript-39" transform="translate(98.144531 0)"/>
       <use xlink:href="#SegoeScript-36" transform="translate(171.191406 0)"/>
      </g>
     </g>
    </g>
    <g id="ytick_2">
     <g id="line2d_13">
      <path d="M 58.43 262.167589 
L 709.2 262.167589 
" clip-path="url(#pb66ca223e5)" style="fill: none; stroke: #b0b0b0; stroke-width: 0.8; stroke-linecap: square"/>
     </g>
     <g id="line2d_14">
      <g>
       <use xlink:href="#m088989a8d9" x="58.43" y="262.167589" style="stroke: #000000; stroke-width: 0.8"/>
      </g>
     </g>
     <g id="text_8">
      <!-- 0.98 -->
      <g transform="translate(27.006562 265.961339) scale(0.1 -0.1)">
       <defs>
        <path id="SegoeScript-38" d="M 3925 3194 
Q 3925 3109 3784 2919 
Q 3716 2825 3656 2753 
Q 3597 2681 3547 2631 
Q 3441 2516 3359 2456 
Q 3316 2425 3237 2370 
Q 3159 2316 3044 2234 
Q 2928 2153 2848 2090 
Q 2769 2028 2722 1984 
Q 2822 1944 2926 1883 
Q 3031 1822 3141 1734 
Q 3253 1647 3348 1550 
Q 3444 1453 3525 1344 
Q 3688 1131 3688 934 
Q 3688 863 3678 786 
Q 3669 709 3653 625 
Q 3622 463 3547 372 
Q 3447 247 3163 144 
Q 2878 44 2575 -13 
Q 2422 -44 2297 -58 
Q 2172 -72 2075 -72 
Q 1850 -72 1513 3 
Q 1175 84 1044 197 
Q 872 350 872 666 
Q 872 816 928 925 
Q 959 978 1007 1053 
Q 1056 1128 1128 1222 
Q 1209 1328 1320 1420 
Q 1431 1513 1541 1584 
Q 1650 1659 1754 1731 
Q 1859 1803 1978 1894 
Q 1919 1928 1811 1986 
Q 1703 2044 1597 2106 
Q 1491 2169 1416 2220 
Q 1341 2272 1269 2338 
Q 1175 2422 1059 2609 
Q 950 2794 950 2906 
Q 944 3097 1042 3244 
Q 1141 3391 1295 3509 
Q 1450 3628 1640 3729 
Q 1831 3831 2009 3938 
Q 2288 4109 2675 4109 
Q 2741 4113 2859 4078 
Q 2978 4044 3098 3991 
Q 3219 3938 3317 3878 
Q 3416 3819 3444 3769 
Q 3497 3691 3531 3469 
Q 3547 3359 3556 3296 
Q 3566 3234 3572 3219 
Q 3588 3238 3608 3266 
Q 3628 3294 3653 3334 
Q 3700 3413 3725 3444 
Q 3797 3425 3859 3344 
Q 3925 3263 3925 3194 
z
M 3150 3078 
Q 3150 3203 3109 3306 
Q 3069 3409 2994 3484 
Q 2919 3559 2816 3600 
Q 2713 3641 2588 3641 
Q 2441 3641 2222 3547 
Q 2009 3459 1813 3325 
Q 1625 3197 1544 3072 
Q 1494 3000 1494 2963 
Q 1494 2841 1591 2728 
Q 1688 2616 1841 2513 
Q 1919 2463 2000 2413 
Q 2081 2363 2172 2313 
Q 2263 2263 2319 2230 
Q 2375 2197 2400 2181 
Q 2466 2234 2544 2301 
Q 2622 2369 2713 2450 
Q 2806 2528 2886 2611 
Q 2966 2694 3023 2775 
Q 3081 2856 3115 2932 
Q 3150 3009 3150 3078 
z
M 3194 909 
Q 3194 1047 3050 1219 
Q 2903 1394 2709 1528 
Q 2509 1666 2369 1716 
Q 2044 1500 1731 1200 
Q 1416 903 1416 659 
Q 1416 528 1591 453 
Q 1769 378 1916 378 
Q 2006 378 2122 384 
Q 2238 391 2378 403 
Q 2522 416 2631 436 
Q 2741 456 2819 481 
Q 2850 494 2890 514 
Q 2931 534 2984 569 
Q 3088 634 3131 678 
Q 3194 741 3194 844 
L 3194 909 
z
" transform="scale(0.015625)"/>
       </defs>
       <use xlink:href="#SegoeScript-30"/>
       <use xlink:href="#SegoeScript-2e" transform="translate(73.046875 0)"/>
       <use xlink:href="#SegoeScript-39" transform="translate(98.144531 0)"/>
       <use xlink:href="#SegoeScript-38" transform="translate(171.191406 0)"/>
      </g>
     </g>
    </g>
    <g id="ytick_3">
     <g id="line2d_15">
      <path d="M 58.43 200.000232 
L 709.2 200.000232 
" clip-path="url(#pb66ca223e5)" style="fill: none; stroke: #b0b0b0; stroke-width: 0.8; stroke-linecap: square"/>
     </g>
     <g id="line2d_16">
      <g>
       <use xlink:href="#m088989a8d9" x="58.43" y="200.000232" style="stroke: #000000; stroke-width: 0.8"/>
      </g>
     </g>
     <g id="text_9">
      <!-- 1.00 -->
      <g transform="translate(27.006562 203.793982) scale(0.1 -0.1)">
       <use xlink:href="#SegoeScript-31"/>
       <use xlink:href="#SegoeScript-2e" transform="translate(73.046875 0)"/>
       <use xlink:href="#SegoeScript-30" transform="translate(98.144531 0)"/>
       <use xlink:href="#SegoeScript-30" transform="translate(171.191406 0)"/>
      </g>
     </g>
    </g>
    <g id="ytick_4">
     <g id="line2d_17">
      <path d="M 58.43 137.832875 
L 709.2 137.832875 
" clip-path="url(#pb66ca223e5)" style="fill: none; stroke: #b0b0b0; stroke-width: 0.8; stroke-linecap: square"/>
     </g>
     <g id="line2d_18">
      <g>
       <use xlink:href="#m088989a8d9" x="58.43" y="137.832875" style="stroke: #000000; stroke-width: 0.8"/>
      </g>
     </g>
     <g id="text_10">
      <!-- 1.02 -->
      <g transform="translate(27.006562 141.626625) scale(0.1 -0.1)">
       <use xlink:href="#SegoeScript-31"/>
       <use xlink:href="#SegoeScript-2e" transform="translate(73.046875 0)"/>
       <use xlink:href="#SegoeScript-30" transform="translate(98.144531 0)"/>
       <use xlink:href="#SegoeScript-32" transform="translate(171.191406 0)"/>
      </g>
     </g>
    </g>
    <g id="ytick_5">
     <g id="line2d_19">
      <path d="M 58.43 75.665518 
L 709.2 75.665518 
" clip-path="url(#pb66ca223e5)" style="fill: none; stroke: #b0b0b0; stroke-width: 0.8; stroke-linecap: square"/>
     </g>
     <g id="line2d_20">
      <g>
       <use xlink:href="#m088989a8d9" x="58.43" y="75.665518" style="stroke: #000000; stroke-width: 0.8"/>
      </g>
     </g>
     <g id="text_11">
      <!-- 1.04 -->
      <g transform="translate(27.006562 79.459268) scale(0.1 -0.1)">
       <defs>
        <path id="SegoeScript-34" d="M 4431 1650 
Q 4431 1578 4375 1522 
Q 4319 1466 4247 1466 
Q 4159 1466 4100 1497 
Q 3941 1556 3730 1590 
Q 3519 1625 3313 1625 
Q 3228 1625 3176 1623 
Q 3125 1622 3063 1619 
Q 2959 1263 2959 953 
Q 2963 881 2963 814 
Q 2963 747 2963 684 
Q 2966 622 2966 544 
Q 2966 466 2966 366 
Q 2966 334 3047 234 
Q 3128 134 3128 97 
Q 3128 50 3100 -4 
Q 3072 -59 3028 -109 
Q 2984 -159 2931 -192 
Q 2878 -225 2831 -225 
Q 2772 -225 2616 -191 
Q 2513 -166 2466 -38 
Q 2422 100 2422 231 
Q 2422 297 2428 392 
Q 2434 488 2447 616 
Q 2469 869 2475 997 
Q 2488 1300 2550 1581 
Q 2513 1588 2456 1591 
Q 2400 1594 2328 1594 
Q 1659 1594 1250 1484 
Q 800 1363 438 1363 
Q 359 1363 264 1428 
Q 169 1494 100 1575 
Q 122 1672 316 1884 
Q 413 1991 523 2102 
Q 634 2213 766 2331 
Q 897 2450 992 2536 
Q 1088 2622 1150 2675 
Q 1313 2809 1628 3059 
Q 1788 3184 1914 3287 
Q 2041 3391 2141 3475 
Q 2178 3506 2229 3551 
Q 2281 3597 2347 3656 
Q 2413 3716 2466 3764 
Q 2519 3813 2569 3855 
Q 2619 3897 2664 3936 
Q 2709 3975 2763 4013 
Q 2822 4059 2909 4125 
Q 2997 4191 3113 4275 
Q 3341 4447 3403 4447 
Q 3488 4447 3569 4416 
Q 3656 4388 3656 4319 
Q 3647 4281 3625 4204 
Q 3603 4128 3578 4036 
Q 3553 3944 3526 3845 
Q 3500 3747 3478 3669 
Q 3413 3413 3361 3198 
Q 3309 2984 3269 2813 
Q 3228 2641 3195 2466 
Q 3163 2291 3134 2113 
Q 3341 2034 3872 2034 
L 3928 2034 
L 4088 2034 
Q 4294 2031 4363 1947 
Q 4431 1869 4431 1650 
z
M 2966 3591 
Q 2844 3475 2706 3364 
Q 2569 3253 2433 3145 
Q 2297 3038 2169 2931 
Q 2041 2825 1944 2719 
Q 1775 2541 1534 2339 
Q 1294 2138 1028 1947 
Q 1028 1900 1084 1900 
Q 1213 1944 1475 1966 
Q 1572 1975 2000 2003 
Q 2216 2019 2378 2041 
Q 2541 2063 2653 2094 
Q 2663 2166 2675 2236 
Q 2688 2306 2703 2375 
Q 2719 2447 2744 2544 
Q 2769 2641 2803 2769 
Q 2872 3025 2897 3144 
Q 2966 3459 2966 3591 
z
" transform="scale(0.015625)"/>
       </defs>
       <use xlink:href="#SegoeScript-31"/>
       <use xlink:href="#SegoeScript-2e" transform="translate(73.046875 0)"/>
       <use xlink:href="#SegoeScript-30" transform="translate(98.144531 0)"/>
       <use xlink:href="#SegoeScript-34" transform="translate(171.191406 0)"/>
      </g>
     </g>
    </g>
    <g id="text_12">
     <!-- Github Stars -->
     <g transform="translate(20.094687 241.105857) rotate(-90) scale(0.12 -0.12)">
      <defs>
       <path id="SegoeScript-47" d="M 5050 4300 
Q 5050 4159 4973 4061 
Q 4897 3963 4756 3963 
Q 4703 3963 4639 4011 
Q 4575 4059 4522 4106 
Q 4472 4156 4406 4193 
Q 4341 4231 4263 4231 
Q 3878 4231 3272 3975 
Q 2969 3844 2706 3676 
Q 2444 3509 2191 3300 
Q 1938 3091 1711 2836 
Q 1484 2581 1313 2328 
Q 1153 2100 1063 1775 
Q 978 1456 978 1153 
Q 978 1009 1125 853 
Q 1272 703 1428 659 
Q 1619 609 1881 609 
Q 2078 606 2303 657 
Q 2528 709 2753 798 
Q 2978 888 3190 1002 
Q 3403 1116 3578 1241 
Q 3641 1291 3711 1358 
Q 3781 1425 3853 1516 
Q 3928 1606 3979 1684 
Q 4031 1763 4063 1831 
Q 4084 1863 4084 1913 
Q 4084 1959 4064 2029 
Q 4044 2100 4044 2144 
Q 4044 2259 4325 2259 
Q 4413 2259 4588 2128 
Q 4763 1997 4763 1925 
Q 4763 1916 4569 1528 
Q 4472 1334 4420 1228 
Q 4369 1122 4359 1100 
Q 4306 978 4253 826 
Q 4200 675 4147 491 
Q 4038 119 4038 -38 
Q 4031 -72 4045 -105 
Q 4059 -138 4076 -164 
Q 4094 -191 4111 -211 
Q 4128 -231 4128 -238 
Q 4128 -313 4101 -377 
Q 4075 -441 4029 -489 
Q 3984 -538 3920 -566 
Q 3856 -594 3781 -594 
Q 3619 -594 3562 -483 
Q 3506 -372 3506 -184 
Q 3506 -134 3511 -87 
Q 3516 -41 3522 6 
Q 3541 103 3569 222 
Q 3584 281 3596 326 
Q 3609 372 3616 403 
Q 3659 578 3659 641 
Q 3659 672 3647 672 
Q 3581 672 3238 500 
Q 3063 416 2958 366 
Q 2853 316 2816 300 
Q 2272 78 1791 78 
Q 1481 78 1138 203 
Q 788 331 550 569 
Q 313 809 313 1125 
Q 313 2050 1166 3041 
Q 1541 3475 1897 3775 
Q 2247 4066 2753 4325 
Q 2834 4369 2937 4414 
Q 3041 4459 3166 4506 
Q 3419 4603 3669 4675 
Q 3919 4747 4134 4775 
Q 4269 4794 4538 4794 
Q 4634 4797 4728 4758 
Q 4822 4719 4894 4648 
Q 4966 4578 5009 4487 
Q 5053 4397 5050 4300 
z
" transform="scale(0.015625)"/>
       <path id="SegoeScript-62" d="M 5363 2272 
Q 5363 2175 5275 2069 
Q 5216 1997 5112 1911 
Q 5009 1825 4856 1722 
Q 4703 1619 4531 1509 
Q 4359 1400 4163 1284 
Q 3966 1169 3775 1056 
Q 3584 944 3388 834 
Q 3191 725 3061 647 
Q 2931 569 2859 525 
Q 2791 481 2714 404 
Q 2638 328 2534 225 
Q 2281 -28 1972 -256 
Q 1806 -378 1594 -378 
Q 1478 -378 1381 -331 
Q 1281 -284 1281 -184 
Q 1281 -122 1331 -72 
Q 1425 22 1504 87 
Q 1584 153 1668 212 
Q 1753 272 1853 334 
Q 1953 397 2088 488 
Q 2250 597 2337 655 
Q 2425 713 2438 722 
Q 2628 863 2776 1005 
Q 2925 1147 3034 1294 
Q 3256 1591 3256 1966 
Q 3256 2031 3229 2140 
Q 3203 2250 3153 2354 
Q 3103 2459 3033 2536 
Q 2963 2613 2875 2613 
Q 2781 2613 2690 2577 
Q 2600 2541 2509 2481 
Q 2419 2422 2333 2345 
Q 2247 2269 2163 2191 
Q 1997 2031 1842 1837 
Q 1688 1644 1516 1400 
Q 1431 1278 1368 1150 
Q 1306 1022 1264 901 
Q 1222 781 1200 675 
Q 1178 569 1175 494 
L 1163 238 
Q 1156 147 1089 95 
Q 1022 44 925 44 
Q 784 44 723 151 
Q 663 259 663 481 
Q 663 513 666 588 
Q 669 663 672 759 
Q 675 856 679 962 
Q 684 1069 687 1162 
Q 691 1256 694 1326 
Q 697 1397 700 1422 
Q 709 1619 723 1800 
Q 738 1981 755 2168 
Q 772 2356 795 2556 
Q 819 2756 847 2988 
Q 875 3219 901 3428 
Q 928 3638 956 3831 
Q 984 4025 1020 4212 
Q 1056 4400 1106 4588 
Q 1113 4609 1131 4671 
Q 1150 4734 1178 4796 
Q 1206 4859 1239 4909 
Q 1272 4959 1309 4959 
Q 1334 4959 1365 4961 
Q 1397 4963 1433 4959 
Q 1469 4956 1503 4943 
Q 1538 4931 1566 4900 
Q 1594 4869 1611 4830 
Q 1628 4791 1634 4752 
Q 1641 4713 1642 4677 
Q 1644 4641 1644 4616 
Q 1644 4572 1612 4451 
Q 1581 4331 1538 4131 
Q 1459 3781 1386 3412 
Q 1313 3044 1269 2681 
Q 1253 2559 1237 2414 
Q 1222 2269 1208 2114 
Q 1194 1959 1183 1800 
Q 1172 1641 1169 1494 
Q 1266 1644 1369 1833 
Q 1472 2022 1622 2200 
Q 1772 2378 1919 2518 
Q 2066 2659 2238 2784 
Q 2581 3034 2875 3034 
Q 3053 3041 3209 2953 
Q 3366 2866 3483 2722 
Q 3600 2578 3664 2401 
Q 3728 2225 3725 2053 
Q 3725 1941 3634 1650 
Q 3591 1506 3547 1429 
Q 3503 1353 3469 1294 
Q 3584 1369 3721 1456 
Q 3859 1544 4000 1633 
Q 4141 1722 4277 1806 
Q 4413 1891 4525 1959 
Q 4544 1972 4600 2008 
Q 4656 2044 4753 2106 
Q 4850 2169 4934 2225 
Q 5019 2281 5091 2325 
Q 5234 2419 5259 2419 
Q 5316 2419 5339 2372 
Q 5363 2325 5363 2272 
z
" transform="scale(0.015625)"/>
       <path id="SegoeScript-53" d="M 3719 3969 
Q 3719 3928 3709 3868 
Q 3700 3809 3683 3748 
Q 3666 3688 3642 3633 
Q 3619 3578 3591 3547 
Q 3516 3456 3322 3456 
Q 3322 3669 3263 3809 
Q 3234 3875 3161 3920 
Q 3088 3966 2997 3997 
Q 2906 4028 2814 4042 
Q 2722 4056 2656 4056 
Q 2506 4056 2367 4050 
Q 2228 4044 2095 4023 
Q 1963 4003 1827 3967 
Q 1691 3931 1544 3872 
Q 1431 3825 1309 3761 
Q 1188 3697 1084 3615 
Q 981 3534 906 3437 
Q 831 3341 813 3225 
Q 806 3138 865 3025 
Q 925 2913 1026 2806 
Q 1128 2700 1261 2612 
Q 1394 2525 1538 2484 
Q 1563 2475 1653 2444 
Q 1744 2413 1848 2378 
Q 1953 2344 2042 2314 
Q 2131 2284 2156 2278 
Q 2863 2097 3205 1848 
Q 3547 1600 3547 1241 
Q 3547 1125 3495 1011 
Q 3444 897 3366 792 
Q 3288 688 3197 600 
Q 3106 513 3028 453 
Q 2938 381 2822 304 
Q 2706 228 2575 156 
Q 2444 84 2303 21 
Q 2163 -41 2019 -88 
Q 1878 -134 1723 -173 
Q 1569 -213 1417 -241 
Q 1266 -269 1127 -286 
Q 988 -303 878 -303 
Q 797 -303 667 -279 
Q 538 -256 413 -214 
Q 288 -172 198 -114 
Q 109 -56 109 9 
Q 109 50 120 109 
Q 131 169 151 225 
Q 172 281 198 320 
Q 225 359 259 359 
Q 322 359 389 339 
Q 456 319 548 294 
Q 641 269 767 248 
Q 894 228 1075 228 
Q 1263 228 1464 267 
Q 1666 306 1859 372 
Q 2053 438 2229 522 
Q 2406 606 2547 697 
Q 2613 741 2692 798 
Q 2772 856 2840 925 
Q 2909 994 2956 1072 
Q 3003 1150 3003 1234 
Q 3003 1353 2828 1463 
Q 2656 1569 2476 1628 
Q 2297 1688 2156 1722 
Q 1984 1766 1770 1837 
Q 1556 1909 1300 2009 
Q 875 2172 581 2484 
Q 288 2797 288 3238 
Q 281 3444 414 3634 
Q 547 3825 772 3987 
Q 997 4150 1286 4276 
Q 1575 4403 1881 4475 
Q 1944 4488 2033 4503 
Q 2122 4519 2217 4530 
Q 2313 4541 2402 4548 
Q 2491 4556 2553 4556 
Q 2628 4556 2742 4545 
Q 2856 4534 2976 4515 
Q 3097 4497 3205 4469 
Q 3313 4441 3378 4403 
Q 3538 4319 3628 4200 
Q 3719 4081 3719 3969 
z
" transform="scale(0.015625)"/>
       <path id="SegoeScript-72" d="M 3525 2522 
Q 3525 2503 3522 2467 
Q 3519 2431 3506 2395 
Q 3494 2359 3476 2331 
Q 3459 2303 3431 2303 
Q 3413 2303 3369 2304 
Q 3325 2306 3276 2309 
Q 3228 2313 3184 2314 
Q 3141 2316 3122 2316 
Q 2525 2278 2128 1878 
Q 1738 1488 1453 834 
Q 1400 700 1348 556 
Q 1297 413 1250 253 
Q 1225 166 1214 98 
Q 1203 31 1178 -44 
Q 1172 -69 1125 -92 
Q 1078 -116 1020 -134 
Q 963 -153 909 -165 
Q 856 -178 838 -178 
Q 622 -191 594 269 
Q 584 394 586 495 
Q 588 597 594 692 
Q 600 788 611 892 
Q 622 997 634 1128 
Q 650 1291 672 1503 
Q 694 1716 722 1931 
Q 750 2147 781 2342 
Q 813 2538 847 2666 
Q 881 2813 942 2884 
Q 1003 2956 1122 2963 
Q 1153 2963 1189 2945 
Q 1225 2928 1254 2900 
Q 1284 2872 1304 2840 
Q 1325 2809 1328 2784 
Q 1331 2706 1325 2614 
Q 1319 2522 1303 2423 
Q 1288 2325 1266 2225 
Q 1244 2125 1222 2034 
Q 1178 1856 1154 1729 
Q 1131 1603 1115 1484 
Q 1100 1366 1084 1230 
Q 1069 1094 1044 894 
Q 1097 1013 1136 1097 
Q 1175 1181 1206 1245 
Q 1238 1309 1264 1359 
Q 1291 1409 1322 1464 
Q 1353 1519 1390 1584 
Q 1428 1650 1484 1744 
Q 1703 2106 1953 2336 
Q 2203 2566 2434 2666 
Q 2697 2791 2866 2800 
Q 2947 2803 3059 2790 
Q 3172 2778 3275 2743 
Q 3378 2709 3451 2654 
Q 3525 2600 3525 2522 
z
" transform="scale(0.015625)"/>
       <path id="SegoeScript-73" d="M 3766 2259 
Q 3766 2209 3737 2148 
Q 3709 2088 3662 2022 
Q 3616 1956 3556 1889 
Q 3497 1822 3438 1756 
Q 3391 1703 3337 1648 
Q 3284 1594 3217 1526 
Q 3150 1459 3059 1370 
Q 2969 1281 2847 1163 
Q 2738 1056 2605 939 
Q 2472 822 2336 709 
Q 2200 597 2072 494 
Q 1944 391 1850 313 
Q 1625 128 1422 -36 
Q 1219 -200 1022 -331 
Q 631 -594 403 -594 
Q 325 -594 222 -553 
Q 116 -513 116 -441 
Q 116 -238 269 -122 
Q 419 -13 738 116 
Q 1050 241 1206 359 
Q 1363 478 1363 684 
Q 1363 788 1147 1103 
Q 1041 1263 958 1395 
Q 875 1528 816 1634 
Q 697 1853 697 2094 
Q 697 2303 775 2534 
Q 813 2666 895 2798 
Q 978 2931 1075 3036 
Q 1172 3141 1272 3203 
Q 1372 3266 1447 3263 
Q 1722 3263 1722 2938 
Q 1722 2813 1631 2694 
Q 1588 2638 1525 2577 
Q 1463 2516 1381 2447 
Q 1303 2381 1248 2331 
Q 1194 2281 1159 2247 
Q 1159 2084 1259 1866 
Q 1313 1759 1381 1634 
Q 1450 1509 1541 1366 
Q 1631 1222 1693 1108 
Q 1756 994 1788 941 
Q 1791 928 1822 928 
Q 1866 928 1973 992 
Q 2081 1056 2229 1164 
Q 2378 1272 2553 1414 
Q 2728 1556 2903 1716 
Q 3084 1878 3203 2000 
Q 3322 2122 3428 2228 
Q 3534 2334 3586 2392 
Q 3638 2450 3644 2450 
Q 3669 2450 3691 2431 
Q 3713 2413 3730 2383 
Q 3747 2353 3756 2320 
Q 3766 2288 3766 2259 
z
" transform="scale(0.015625)"/>
      </defs>
      <use xlink:href="#SegoeScript-47"/>
      <use xlink:href="#SegoeScript-69" transform="translate(80.322266 0)"/>
      <use xlink:href="#SegoeScript-74" transform="translate(126.904297 0)"/>
      <use xlink:href="#SegoeScript-68" transform="translate(164.208984 0)"/>
      <use xlink:href="#SegoeScript-75" transform="translate(243.896484 0)"/>
      <use xlink:href="#SegoeScript-62" transform="translate(320.3125 0)"/>
      <use xlink:href="#SegoeScript-20" transform="translate(388.134766 0)"/>
      <use xlink:href="#SegoeScript-53" transform="translate(428.125 0)"/>
      <use xlink:href="#SegoeScript-74" transform="translate(489.306641 0)"/>
      <use xlink:href="#SegoeScript-61" transform="translate(526.611328 0)"/>
      <use xlink:href="#SegoeScript-72" transform="translate(592.1875 0)"/>
      <use xlink:href="#SegoeScript-73" transform="translate(643.359375 0)"/>
     </g>
    </g>
   </g>
   <g id="line2d_21">
    <path d="M 383.815 200.000232 
" clip-path="url(#pb66ca223e5)" style="fill: none; stroke: #0000ff; stroke-width: 1.5; stroke-linecap: square"/>
   </g>
   <g id="patch_3">
    <path d="M 58.43 370.960464 
L 58.43 29.04 
" style="fill: none; stroke: #000000; stroke-width: 0.8; stroke-linejoin: miter; stroke-linecap: square"/>
   </g>
   <g id="patch_4">
    <path d="M 709.2 370.960464 
L 709.2 29.04 
" style="fill: none; stroke: #000000; stroke-width: 0.8; stroke-linejoin: miter; stroke-linecap: square"/>
   </g>
   <g id="patch_5">
    <path d="M 58.43 370.960464 
L 709.2 370.960464 
" style="fill: none; stroke: #000000; stroke-width: 0.8; stroke-linejoin: miter; stroke-linecap: square"/>
   </g>
   <g id="patch_6">
    <path d="M 58.43 29.04 
L 709.2 29.04 
" style="fill: none; stroke: #000000; stroke-width: 0.8; stroke-linejoin: miter; stroke-linecap: square"/>
   </g>
   <g id="text_13">
    <g id="patch_7">
     <path d="M 86.9085 64.449773 
L 413.3185 64.449773 
L 413.3185 42.076023 
L 86.9085 42.076023 
z
" style="fill: #ffffff; opacity: 0.8"/>
    </g>
    <!-- ishandutta2007/add-github-growth-plot -->
    <g transform="translate(90.9685 56.992586) scale(0.14 -0.14)">
     <defs>
      <path id="SegoeScript-64" d="M 5466 2156 
Q 5466 2078 5428 2003 
Q 5359 1866 5113 1581 
Q 4994 1441 4859 1305 
Q 4725 1169 4575 1028 
Q 4425 888 4284 775 
Q 4144 663 4009 572 
Q 3744 391 3584 391 
Q 3522 391 3425 434 
Q 3228 525 3113 766 
Q 3000 1006 2953 1268 
Q 2906 1531 2875 1856 
Q 2484 1128 1863 563 
Q 1238 -6 569 -6 
Q 384 -6 288 191 
Q 191 384 191 594 
Q 191 875 238 1013 
Q 369 1413 539 1763 
Q 709 2113 953 2450 
Q 1113 2669 1316 2888 
Q 1522 3106 1703 3200 
Q 1928 3322 2350 3322 
Q 2497 3322 2600 3159 
Q 2703 2997 2756 2781 
Q 2809 2553 2809 2425 
Q 2856 2578 2893 2736 
Q 2931 2894 2959 3062 
Q 2988 3231 3011 3417 
Q 3034 3603 3053 3816 
Q 3059 3872 3065 3959 
Q 3072 4047 3081 4166 
Q 3100 4409 3119 4576 
Q 3138 4744 3169 4794 
Q 3244 4922 3431 4922 
Q 3525 4922 3616 4881 
Q 3713 4844 3713 4775 
Q 3713 4738 3698 4653 
Q 3684 4569 3659 4434 
Q 3634 4300 3592 4101 
Q 3550 3903 3500 3628 
Q 3497 3597 3481 3503 
Q 3466 3409 3447 3304 
Q 3428 3200 3412 3111 
Q 3397 3022 3394 3000 
Q 3353 2747 3328 2525 
Q 3303 2303 3303 2075 
Q 3303 1894 3313 1647 
Q 3322 1397 3359 1163 
Q 3397 928 3469 928 
Q 3725 928 4088 1163 
Q 4447 1400 4781 1706 
Q 5116 2013 5375 2291 
Q 5394 2309 5409 2309 
Q 5444 2309 5455 2257 
Q 5466 2206 5466 2156 
z
M 2553 1959 
Q 2472 1978 2430 2040 
Q 2388 2103 2388 2181 
Q 2388 2244 2406 2366 
Q 2425 2488 2425 2553 
Q 2425 2609 2395 2679 
Q 2366 2750 2319 2811 
Q 2272 2872 2214 2914 
Q 2156 2956 2100 2956 
Q 1934 2956 1650 2609 
Q 1506 2431 1386 2268 
Q 1266 2106 1166 1947 
Q 1056 1775 979 1631 
Q 903 1488 850 1375 
Q 666 978 666 750 
Q 666 459 863 459 
Q 1038 459 1344 663 
Q 1659 878 1831 1050 
Q 2009 1238 2128 1366 
Q 2247 1494 2316 1572 
Q 2384 1650 2442 1747 
Q 2500 1844 2553 1959 
z
" transform="scale(0.015625)"/>
      <path id="SegoeScript-37" d="M 4494 3931 
Q 4494 3850 4463 3797 
Q 4416 3734 4362 3668 
Q 4309 3603 4254 3537 
Q 4200 3472 4145 3408 
Q 4091 3344 4044 3291 
Q 4000 3241 3939 3159 
Q 3878 3078 3811 2981 
Q 3744 2884 3676 2784 
Q 3609 2684 3553 2598 
Q 3497 2513 3458 2452 
Q 3419 2391 3406 2375 
Q 3281 2184 3143 1943 
Q 3006 1703 2888 1459 
Q 2819 1316 2750 1177 
Q 2681 1038 2623 909 
Q 2566 781 2522 665 
Q 2478 550 2459 453 
Q 2441 388 2441 238 
Q 2441 181 2425 123 
Q 2409 66 2373 19 
Q 2338 -28 2283 -59 
Q 2228 -91 2153 -91 
Q 2078 -91 2022 -50 
Q 1966 -9 1928 53 
Q 1891 116 1870 189 
Q 1850 263 1850 325 
Q 1850 425 2009 778 
Q 2122 1019 2234 1244 
Q 2347 1469 2465 1686 
Q 2584 1903 2711 2117 
Q 2838 2331 2981 2547 
Q 3016 2597 3083 2698 
Q 3150 2800 3228 2912 
Q 3306 3025 3382 3129 
Q 3459 3234 3513 3291 
Q 3569 3350 3636 3428 
Q 3703 3506 3759 3581 
L 3700 3625 
Q 3594 3619 3461 3611 
Q 3328 3603 3186 3597 
Q 3044 3591 2897 3584 
Q 2750 3578 2613 3575 
Q 2409 3569 2161 3564 
Q 1913 3559 1678 3553 
Q 1444 3547 1259 3544 
Q 1075 3541 1003 3541 
Q 959 3541 926 3562 
Q 894 3584 870 3620 
Q 847 3656 834 3698 
Q 822 3741 822 3781 
Q 822 3828 844 3878 
Q 866 3928 902 3970 
Q 938 4013 983 4039 
Q 1028 4066 1075 4066 
Q 1163 4066 1297 4058 
Q 1431 4050 1601 4039 
Q 1772 4028 1975 4020 
Q 2178 4013 2403 4013 
Q 2506 4013 2634 4016 
Q 2763 4019 2903 4023 
Q 3044 4028 3194 4037 
Q 3344 4047 3491 4056 
Q 3606 4066 3707 4077 
Q 3809 4088 3906 4097 
Q 4003 4106 4100 4112 
Q 4197 4119 4303 4119 
Q 4384 4119 4439 4070 
Q 4494 4022 4494 3931 
z
" transform="scale(0.015625)"/>
      <path id="SegoeScript-2f" d="M 3591 4634 
Q 3591 4541 3309 4134 
Q 3253 4050 3164 3926 
Q 3075 3803 2956 3638 
Q 2838 3472 2747 3348 
Q 2656 3225 2597 3144 
Q 2109 2450 1913 2169 
Q 1816 2028 1689 1840 
Q 1563 1653 1403 1416 
Q 1300 1259 1113 994 
Q 1022 859 940 732 
Q 859 606 788 488 
Q 750 413 731 369 
Q 713 325 678 263 
Q 569 59 403 -172 
Q 234 -409 191 -409 
Q 113 -409 31 -328 
Q -50 -247 -50 -166 
Q -50 -138 -25 -72 
Q 256 569 588 1050 
Q 634 1116 695 1203 
Q 756 1291 828 1400 
Q 903 1509 959 1593 
Q 1016 1678 1056 1734 
Q 1066 1747 1087 1776 
Q 1109 1806 1144 1850 
Q 1178 1897 1206 1934 
Q 1234 1972 1253 2003 
Q 1322 2113 1395 2227 
Q 1469 2341 1550 2463 
Q 1631 2584 1704 2692 
Q 1778 2800 1841 2891 
Q 1972 3078 2105 3281 
Q 2238 3484 2369 3681 
Q 2384 3706 2437 3789 
Q 2491 3872 2581 4022 
Q 2672 4172 2756 4295 
Q 2841 4419 2916 4519 
Q 3069 4725 3238 4884 
Q 3250 4897 3283 4912 
Q 3316 4928 3341 4928 
Q 3403 4928 3497 4816 
Q 3591 4703 3591 4634 
z
" transform="scale(0.015625)"/>
      <path id="SegoeScript-2d" d="M 3878 1772 
Q 3878 1725 3861 1672 
Q 3844 1619 3809 1588 
Q 3775 1563 3628 1563 
Q 3566 1563 3434 1603 
Q 3303 1644 3225 1644 
Q 3200 1644 3161 1641 
Q 3122 1638 3078 1634 
Q 3034 1631 2995 1628 
Q 2956 1625 2931 1625 
Q 2831 1625 2622 1644 
Q 2409 1663 2309 1663 
Q 2166 1663 1875 1644 
Q 1584 1625 1434 1625 
Q 1284 1625 1192 1658 
Q 1100 1691 1100 1806 
Q 1100 1875 1153 1931 
Q 1206 1988 1281 2003 
Q 1613 2069 1778 2069 
Q 1822 2069 1906 2050 
Q 1950 2044 1976 2039 
Q 2003 2034 2016 2034 
L 2244 2034 
Q 2528 2034 2742 2043 
Q 2956 2053 3109 2075 
Q 3244 2094 3384 2094 
Q 3444 2094 3594 2034 
Q 3747 1972 3809 1941 
Q 3838 1922 3858 1869 
Q 3878 1816 3878 1772 
z
" transform="scale(0.015625)"/>
      <path id="SegoeScript-67" d="M 2822 2400 
Q 2797 2184 2781 1921 
Q 2766 1659 2741 1338 
Q 2731 1219 2715 1069 
Q 2700 919 2681 759 
Q 2663 600 2644 445 
Q 2625 291 2606 166 
Q 2578 -16 2534 -211 
Q 2491 -406 2425 -597 
Q 2359 -788 2264 -959 
Q 2169 -1131 2037 -1261 
Q 1906 -1391 1732 -1467 
Q 1559 -1544 1338 -1544 
Q 1197 -1544 1053 -1509 
Q 909 -1475 770 -1417 
Q 631 -1359 501 -1279 
Q 372 -1200 263 -1109 
Q 141 -1009 47 -904 
Q -47 -800 -109 -691 
Q -172 -584 -172 -481 
Q -172 -384 -109 -384 
Q -88 -384 -63 -406 
Q -50 -416 -33 -434 
Q -16 -453 0 -470 
Q 16 -488 28 -502 
Q 41 -516 44 -519 
Q 647 -1075 1331 -1075 
Q 1559 -1075 1704 -970 
Q 1850 -866 1936 -698 
Q 2022 -531 2067 -326 
Q 2113 -122 2144 78 
Q 2163 203 2177 328 
Q 2191 453 2203 589 
Q 2216 725 2228 875 
Q 2241 1025 2256 1200 
Q 2128 1063 1933 908 
Q 1738 753 1514 622 
Q 1291 491 1064 405 
Q 838 319 647 319 
Q 566 319 497 356 
Q 428 394 378 464 
Q 328 534 298 636 
Q 269 738 269 863 
Q 269 1044 331 1250 
Q 394 1456 491 1661 
Q 588 1866 706 2058 
Q 825 2250 938 2403 
Q 1050 2553 1209 2717 
Q 1369 2881 1551 3017 
Q 1734 3153 1931 3240 
Q 2128 3328 2316 3328 
Q 2481 3328 2625 3254 
Q 2769 3181 2847 3034 
Q 2866 3000 2869 2933 
Q 2872 2866 2865 2780 
Q 2859 2694 2846 2595 
Q 2834 2497 2822 2400 
z
M 2309 1831 
Q 2322 1925 2334 2058 
Q 2347 2191 2366 2388 
Q 2375 2491 2386 2594 
Q 2397 2697 2378 2763 
Q 2353 2853 2281 2878 
Q 2209 2903 2047 2903 
Q 1897 2809 1748 2671 
Q 1600 2534 1464 2375 
Q 1328 2216 1212 2045 
Q 1097 1875 1009 1713 
Q 913 1534 856 1357 
Q 800 1181 800 1059 
Q 800 1006 820 972 
Q 841 938 873 917 
Q 906 897 948 889 
Q 991 881 1034 881 
Q 1144 881 1270 928 
Q 1397 975 1522 1044 
Q 1647 1113 1759 1189 
Q 1872 1266 1953 1328 
Q 1988 1353 2044 1406 
Q 2100 1459 2156 1529 
Q 2213 1600 2256 1678 
Q 2300 1756 2309 1831 
z
" transform="scale(0.015625)"/>
      <path id="SegoeScript-70" d="M 5422 2400 
Q 5422 2303 5356 2169 
Q 5341 2134 5302 2095 
Q 5263 2056 5220 2018 
Q 5178 1981 5137 1951 
Q 5097 1922 5078 1906 
Q 4975 1822 4812 1717 
Q 4650 1613 4451 1495 
Q 4253 1378 4031 1258 
Q 3809 1138 3587 1022 
Q 3366 906 3156 803 
Q 2947 700 2775 622 
Q 2650 566 2537 495 
Q 2425 425 2317 364 
Q 2209 303 2100 262 
Q 1991 222 1869 222 
Q 1797 222 1730 239 
Q 1663 256 1609 293 
Q 1556 331 1523 389 
Q 1491 447 1491 528 
Q 1491 572 1520 609 
Q 1550 647 1597 676 
Q 1644 706 1700 731 
Q 1756 756 1809 775 
Q 1866 797 1942 820 
Q 2019 844 2097 867 
Q 2175 891 2248 916 
Q 2322 941 2375 966 
Q 2475 1019 2562 1100 
Q 2650 1181 2725 1278 
Q 2800 1375 2865 1479 
Q 2931 1584 2988 1681 
Q 3025 1747 3059 1828 
Q 3094 1909 3120 1990 
Q 3147 2072 3161 2145 
Q 3175 2219 3175 2269 
Q 3175 2484 3081 2612 
Q 2988 2741 2847 2741 
Q 2759 2741 2645 2683 
Q 2531 2625 2417 2544 
Q 2303 2463 2204 2373 
Q 2106 2284 2047 2222 
Q 1903 2069 1776 1889 
Q 1650 1709 1537 1520 
Q 1425 1331 1325 1140 
Q 1225 950 1141 775 
Q 1103 628 1067 450 
Q 1031 272 1013 59 
Q 978 -363 961 -694 
Q 944 -1025 891 -1300 
Q 872 -1400 800 -1476 
Q 728 -1553 613 -1553 
Q 578 -1553 531 -1536 
Q 484 -1519 442 -1487 
Q 400 -1456 370 -1417 
Q 341 -1378 341 -1331 
Q 341 -1228 355 -1076 
Q 369 -925 387 -772 
Q 406 -619 423 -494 
Q 441 -369 447 -319 
Q 491 3 525 376 
Q 559 750 581 1191 
Q 584 1284 589 1439 
Q 594 1594 598 1751 
Q 603 1909 608 2045 
Q 613 2181 619 2238 
Q 663 2834 931 2834 
Q 984 2834 1032 2807 
Q 1081 2781 1118 2739 
Q 1156 2697 1178 2644 
Q 1200 2591 1200 2541 
Q 1200 2431 1176 2304 
Q 1153 2178 1125 2045 
Q 1097 1913 1073 1784 
Q 1050 1656 1050 1550 
Q 1050 1459 1069 1459 
Q 1288 1853 1497 2151 
Q 1706 2450 1916 2647 
Q 2050 2772 2181 2876 
Q 2313 2981 2445 3057 
Q 2578 3134 2720 3176 
Q 2863 3219 3022 3222 
Q 3131 3225 3248 3169 
Q 3366 3113 3459 3000 
Q 3553 2888 3614 2727 
Q 3675 2566 3672 2363 
Q 3675 2206 3623 2050 
Q 3572 1894 3486 1742 
Q 3400 1591 3287 1450 
Q 3175 1309 3053 1191 
Q 3309 1288 3579 1428 
Q 3850 1569 4120 1731 
Q 4391 1894 4652 2069 
Q 4913 2244 5150 2409 
Q 5222 2459 5265 2493 
Q 5309 2528 5363 2528 
Q 5406 2528 5414 2486 
Q 5422 2444 5422 2400 
z
" transform="scale(0.015625)"/>
     </defs>
     <use xlink:href="#SegoeScript-69"/>
     <use xlink:href="#SegoeScript-73" transform="translate(46.582031 0)"/>
     <use xlink:href="#SegoeScript-68" transform="translate(88.28125 0)"/>
     <use xlink:href="#SegoeScript-61" transform="translate(167.96875 0)"/>
     <use xlink:href="#SegoeScript-6e" transform="translate(233.544922 0)"/>
     <use xlink:href="#SegoeScript-64" transform="translate(309.375 0)"/>
     <use xlink:href="#SegoeScript-75" transform="translate(380.078125 0)"/>
     <use xlink:href="#SegoeScript-74" transform="translate(456.494141 0)"/>
     <use xlink:href="#SegoeScript-74" transform="translate(493.798828 0)"/>
     <use xlink:href="#SegoeScript-61" transform="translate(531.103516 0)"/>
     <use xlink:href="#SegoeScript-32" transform="translate(596.679688 0)"/>
     <use xlink:href="#SegoeScript-30" transform="translate(669.726562 0)"/>
     <use xlink:href="#SegoeScript-30" transform="translate(742.773438 0)"/>
     <use xlink:href="#SegoeScript-37" transform="translate(815.820312 0)"/>
     <use xlink:href="#SegoeScript-2f" transform="translate(888.867188 0)"/>
     <use xlink:href="#SegoeScript-61" transform="translate(946.386719 0)"/>
     <use xlink:href="#SegoeScript-64" transform="translate(1011.962891 0)"/>
     <use xlink:href="#SegoeScript-64" transform="translate(1082.666016 0)"/>
     <use xlink:href="#SegoeScript-2d" transform="translate(1153.369141 0)"/>
     <use xlink:href="#SegoeScript-67" transform="translate(1217.480469 0)"/>
     <use xlink:href="#SegoeScript-69" transform="translate(1266.259766 0)"/>
     <use xlink:href="#SegoeScript-74" transform="translate(1312.841797 0)"/>
     <use xlink:href="#SegoeScript-68" transform="translate(1350.146484 0)"/>
     <use xlink:href="#SegoeScript-75" transform="translate(1429.833984 0)"/>
     <use xlink:href="#SegoeScript-62" transform="translate(1506.25 0)"/>
     <use xlink:href="#SegoeScript-2d" transform="translate(1574.072266 0)"/>
     <use xlink:href="#SegoeScript-67" transform="translate(1638.183594 0)"/>
     <use xlink:href="#SegoeScript-72" transform="translate(1686.962891 0)"/>
     <use xlink:href="#SegoeScript-6f" transform="translate(1738.134766 0)"/>
     <use xlink:href="#SegoeScript-77" transform="translate(1795.947266 0)"/>
     <use xlink:href="#SegoeScript-74" transform="translate(1885.644531 0)"/>
     <use xlink:href="#SegoeScript-68" transform="translate(1922.949219 0)"/>
     <use xlink:href="#SegoeScript-2d" transform="translate(2002.636719 0)"/>
     <use xlink:href="#SegoeScript-70" transform="translate(2066.748047 0)"/>
     <use xlink:href="#SegoeScript-6c" transform="translate(2133.935547 0)"/>
     <use xlink:href="#SegoeScript-6f" transform="translate(2178.320312 0)"/>
     <use xlink:href="#SegoeScript-74" transform="translate(2236.132812 0)"/>
    </g>
   </g>
   <g id="text_14">
    <!-- Star history -->
    <g transform="translate(342.58 23.04) scale(0.16 -0.16)">
     <defs>
      <path id="Georgia-53" d="M 3066 2034 
Q 3206 1878 3273 1692 
Q 3341 1506 3341 1259 
Q 3341 672 2906 290 
Q 2472 -91 1828 -91 
Q 1531 -91 1234 1 
Q 938 94 722 225 
L 588 -3 
L 338 -3 
L 294 1516 
L 547 1516 
Q 625 1234 729 1007 
Q 834 781 1006 584 
Q 1169 400 1386 290 
Q 1603 181 1891 181 
Q 2106 181 2267 237 
Q 2428 294 2528 397 
Q 2628 500 2676 639 
Q 2725 778 2725 959 
Q 2725 1225 2575 1454 
Q 2425 1684 2128 1803 
Q 1925 1884 1662 1982 
Q 1400 2081 1209 2169 
Q 834 2338 626 2611 
Q 419 2884 419 3325 
Q 419 3578 522 3797 
Q 625 4016 816 4188 
Q 997 4350 1244 4442 
Q 1491 4534 1759 4534 
Q 2066 4534 2308 4440 
Q 2550 4347 2750 4222 
L 2878 4434 
L 3128 4434 
L 3153 2963 
L 2900 2963 
Q 2831 3216 2745 3447 
Q 2659 3678 2522 3866 
Q 2388 4047 2194 4155 
Q 2000 4263 1719 4263 
Q 1422 4263 1212 4072 
Q 1003 3881 1003 3606 
Q 1003 3319 1137 3130 
Q 1272 2941 1528 2819 
Q 1756 2709 1976 2629 
Q 2197 2550 2403 2459 
Q 2591 2378 2764 2275 
Q 2938 2172 3066 2034 
z
" transform="scale(0.015625)"/>
      <path id="Georgia-74" d="M 2128 134 
Q 1925 50 1744 -8 
Q 1563 -66 1300 -66 
Q 913 -66 755 129 
Q 597 325 597 681 
L 597 2769 
L 41 2769 
L 41 3069 
L 609 3069 
L 609 4028 
L 1178 4028 
L 1178 3069 
L 2063 3069 
L 2063 2769 
L 1184 2769 
L 1184 1047 
Q 1184 853 1198 723 
Q 1213 594 1266 497 
Q 1316 406 1416 359 
Q 1516 313 1684 313 
Q 1763 313 1914 327 
Q 2066 341 2128 363 
L 2128 134 
z
" transform="scale(0.015625)"/>
      <path id="Georgia-61" d="M 3144 56 
Q 2997 3 2886 -30 
Q 2775 -63 2634 -63 
Q 2391 -63 2245 51 
Q 2100 166 2059 384 
L 2041 384 
Q 1838 159 1605 40 
Q 1372 -78 1044 -78 
Q 697 -78 473 134 
Q 250 347 250 691 
Q 250 869 300 1009 
Q 350 1150 450 1263 
Q 528 1356 656 1429 
Q 784 1503 897 1547 
Q 1038 1600 1467 1744 
Q 1897 1888 2047 1969 
L 2047 2278 
Q 2047 2319 2030 2434 
Q 2013 2550 1956 2653 
Q 1894 2769 1780 2855 
Q 1666 2941 1456 2941 
Q 1313 2941 1189 2892 
Q 1066 2844 1016 2791 
Q 1016 2728 1045 2606 
Q 1075 2484 1075 2381 
Q 1075 2272 976 2181 
Q 878 2091 703 2091 
Q 547 2091 473 2202 
Q 400 2313 400 2450 
Q 400 2594 501 2725 
Q 603 2856 766 2959 
Q 906 3047 1106 3108 
Q 1306 3169 1497 3169 
Q 1759 3169 1954 3133 
Q 2150 3097 2309 2978 
Q 2469 2863 2551 2664 
Q 2634 2466 2634 2153 
Q 2634 1706 2625 1361 
Q 2616 1016 2616 606 
Q 2616 484 2658 412 
Q 2700 341 2788 291 
Q 2834 263 2936 259 
Q 3038 256 3144 256 
L 3144 56 
z
M 2053 1706 
Q 1788 1628 1588 1553 
Q 1388 1478 1216 1366 
Q 1059 1259 968 1114 
Q 878 969 878 769 
Q 878 509 1014 387 
Q 1150 266 1359 266 
Q 1581 266 1750 373 
Q 1919 481 2034 628 
L 2053 1706 
z
" transform="scale(0.015625)"/>
      <path id="Georgia-72" d="M 2584 2684 
Q 2584 2525 2506 2401 
Q 2428 2278 2266 2278 
Q 2091 2278 1998 2368 
Q 1906 2459 1906 2569 
Q 1906 2638 1917 2694 
Q 1928 2750 1938 2806 
Q 1791 2806 1594 2687 
Q 1397 2569 1259 2350 
L 1259 556 
Q 1259 447 1301 378 
Q 1344 309 1434 275 
Q 1513 244 1636 228 
Q 1759 213 1850 206 
L 1850 0 
L 225 0 
L 225 206 
Q 297 213 373 219 
Q 450 225 506 244 
Q 594 272 636 342 
Q 678 413 678 525 
L 678 2428 
Q 678 2525 633 2619 
Q 588 2713 506 2769 
Q 447 2806 365 2823 
Q 284 2841 191 2847 
L 191 3050 
L 1216 3119 
L 1259 3075 
L 1259 2641 
L 1275 2641 
Q 1469 2894 1706 3025 
Q 1944 3156 2141 3156 
Q 2338 3156 2461 3028 
Q 2584 2900 2584 2684 
z
" transform="scale(0.015625)"/>
      <path id="Georgia-20" transform="scale(0.015625)"/>
      <path id="Georgia-68" d="M 3572 0 
L 2059 0 
L 2059 206 
Q 2131 213 2218 219 
Q 2306 225 2363 244 
Q 2450 272 2492 342 
Q 2534 413 2534 525 
L 2534 2109 
Q 2534 2438 2379 2616 
Q 2225 2794 2003 2794 
Q 1841 2794 1702 2742 
Q 1563 2691 1453 2616 
Q 1347 2538 1290 2459 
Q 1234 2381 1203 2328 
L 1203 556 
Q 1203 450 1245 381 
Q 1288 313 1375 275 
Q 1444 244 1517 228 
Q 1591 213 1678 206 
L 1678 0 
L 166 0 
L 166 206 
Q 238 213 316 220 
Q 394 228 447 244 
Q 534 272 578 342 
Q 622 413 622 525 
L 622 4113 
Q 622 4219 573 4325 
Q 525 4431 447 4484 
Q 391 4525 248 4542 
Q 106 4559 19 4566 
L 19 4766 
L 1159 4838 
L 1203 4791 
L 1203 2641 
L 1216 2641 
Q 1319 2744 1403 2823 
Q 1488 2903 1625 2991 
Q 1744 3066 1905 3116 
Q 2066 3166 2266 3166 
Q 2678 3166 2900 2905 
Q 3122 2644 3122 2153 
L 3122 550 
Q 3122 441 3161 373 
Q 3200 306 3291 269 
Q 3363 241 3420 227 
Q 3478 213 3572 206 
L 3572 0 
z
" transform="scale(0.015625)"/>
      <path id="Georgia-69" d="M 1722 0 
L 231 0 
L 231 206 
Q 303 213 379 219 
Q 456 225 513 244 
Q 600 272 642 342 
Q 684 413 684 525 
L 684 2428 
Q 684 2528 639 2611 
Q 594 2694 513 2750 
Q 453 2788 340 2814 
Q 228 2841 134 2847 
L 134 3050 
L 1222 3119 
L 1266 3075 
L 1266 563 
Q 1266 453 1308 381 
Q 1350 309 1441 275 
Q 1509 247 1575 230 
Q 1641 213 1722 206 
L 1722 0 
z
M 1328 4334 
Q 1328 4156 1211 4023 
Q 1094 3891 922 3891 
Q 763 3891 645 4017 
Q 528 4144 528 4306 
Q 528 4478 645 4606 
Q 763 4734 922 4734 
Q 1100 4734 1214 4614 
Q 1328 4494 1328 4334 
z
" transform="scale(0.015625)"/>
      <path id="Georgia-73" d="M 2259 1509 
Q 2388 1397 2456 1250 
Q 2525 1103 2525 891 
Q 2525 463 2204 191 
Q 1884 -81 1375 -81 
Q 1106 -81 879 16 
Q 653 113 556 194 
L 494 -9 
L 259 -9 
L 228 1063 
L 444 1063 
Q 469 941 550 778 
Q 631 616 747 484 
Q 869 347 1039 253 
Q 1209 159 1422 159 
Q 1722 159 1884 295 
Q 2047 431 2047 684 
Q 2047 816 1995 911 
Q 1944 1006 1844 1078 
Q 1741 1150 1591 1208 
Q 1441 1266 1256 1322 
Q 1109 1366 929 1442 
Q 750 1519 622 1622 
Q 484 1731 396 1890 
Q 309 2050 309 2266 
Q 309 2644 590 2906 
Q 872 3169 1344 3169 
Q 1525 3169 1714 3122 
Q 1903 3075 2022 3009 
L 2094 3172 
L 2319 3172 
L 2366 2181 
L 2150 2181 
Q 2084 2513 1867 2720 
Q 1650 2928 1338 2928 
Q 1081 2928 934 2800 
Q 788 2672 788 2491 
Q 788 2350 836 2256 
Q 884 2163 981 2097 
Q 1075 2034 1217 1979 
Q 1359 1925 1569 1856 
Q 1775 1791 1958 1703 
Q 2141 1616 2259 1509 
z
" transform="scale(0.015625)"/>
      <path id="Georgia-6f" d="M 3228 1572 
Q 3228 1247 3125 933 
Q 3022 619 2831 400 
Q 2616 150 2331 28 
Q 2047 -94 1694 -94 
Q 1400 -94 1134 17 
Q 869 128 663 341 
Q 459 550 339 851 
Q 219 1153 219 1528 
Q 219 2250 639 2709 
Q 1059 3169 1741 3169 
Q 2388 3169 2808 2733 
Q 3228 2297 3228 1572 
z
M 2581 1566 
Q 2581 1800 2534 2061 
Q 2488 2322 2394 2503 
Q 2294 2697 2131 2814 
Q 1969 2931 1734 2931 
Q 1494 2931 1323 2812 
Q 1153 2694 1047 2488 
Q 947 2297 906 2053 
Q 866 1809 866 1581 
Q 866 1281 914 1026 
Q 963 772 1069 572 
Q 1175 372 1336 258 
Q 1497 144 1734 144 
Q 2125 144 2353 522 
Q 2581 900 2581 1566 
z
" transform="scale(0.015625)"/>
      <path id="Georgia-79" d="M -9 -1006 
Q -9 -850 77 -751 
Q 163 -653 291 -653 
Q 391 -653 462 -690 
Q 534 -728 591 -788 
Q 638 -834 691 -915 
Q 744 -997 775 -1050 
Q 931 -966 1148 -609 
Q 1366 -253 1463 16 
Q 1166 756 925 1340 
Q 684 1925 422 2550 
Q 363 2694 222 2773 
Q 81 2853 -59 2875 
L -59 3081 
L 1347 3081 
L 1347 2863 
Q 1253 2859 1122 2823 
Q 991 2788 991 2741 
Q 991 2722 1005 2678 
Q 1019 2634 1038 2588 
Q 1156 2278 1400 1695 
Q 1644 1113 1778 763 
Q 1919 1097 2070 1455 
Q 2222 1813 2409 2300 
Q 2431 2359 2472 2464 
Q 2513 2569 2513 2644 
Q 2513 2725 2370 2795 
Q 2228 2866 2100 2881 
L 2100 3081 
L 3244 3081 
L 3244 2888 
Q 3150 2872 2997 2780 
Q 2844 2688 2769 2519 
Q 2397 1656 2108 947 
Q 1819 238 1669 -97 
Q 1472 -534 1317 -779 
Q 1163 -1025 1016 -1166 
Q 872 -1297 755 -1342 
Q 638 -1388 513 -1388 
Q 269 -1388 130 -1272 
Q -9 -1156 -9 -1006 
z
" transform="scale(0.015625)"/>
     </defs>
     <use xlink:href="#Georgia-53"/>
     <use xlink:href="#Georgia-74" transform="translate(56.103516 0)"/>
     <use xlink:href="#Georgia-61" transform="translate(90.625 0)"/>
     <use xlink:href="#Georgia-72" transform="translate(141.015625 0)"/>
     <use xlink:href="#Georgia-20" transform="translate(181.982422 0)"/>
     <use xlink:href="#Georgia-68" transform="translate(206.103516 0)"/>
     <use xlink:href="#Georgia-69" transform="translate(264.306641 0)"/>
     <use xlink:href="#Georgia-73" transform="translate(293.603516 0)"/>
     <use xlink:href="#Georgia-74" transform="translate(336.816406 0)"/>
     <use xlink:href="#Georgia-6f" transform="translate(371.337891 0)"/>
     <use xlink:href="#Georgia-72" transform="translate(425.244141 0)"/>
     <use xlink:href="#Georgia-79" transform="translate(466.210938 0)"/>
    </g>
   </g>
  </g>
 </g>
 <defs>
  <clipPath id="pb66ca223e5">
   <rect x="58.43" y="29.04" width="650.77" height="341.920464"/>
  </clipPath>
 </defs>
</svg>
